<svg xmlns="http://www.w3.org/2000/svg" width="75.2" height="156.7" viewBox="0 0 75.2 156.7">
  <title>Recurso 3</title>
  <g id="Capa_2" data-name="Capa 2">
    <g id="Capa_1-2" data-name="Capa 1">
      <path d="M1.5,122.8h.8m-.8-15.6h.8m0,15.6V107.2m-.8,15.6V107.2m.8,48V138.1m-.8,0h.8m-.8,17.1V138.1m0,17.1h.8M73.7,21.1V1.5m0,0h-.8m0,0V21.1M2.3,107.9v47.3m0,0H73.7M72.5,69.4,1.9,107.2M73.7,21.1V155.2m0-134.1h-.8m0,0v49m-.4-.7.4.7m-71,37.1.4.7" style="fill: none;stroke: #000;stroke-linecap: round;stroke-linejoin: round;stroke-width: 3px;opacity: 0.7000000000000001"/>
    </g>
  </g>
</svg>
