<svg xmlns="http://www.w3.org/2000/svg" width="143.5" height="198.8" viewBox="0 0 143.5 198.8">
  <title>Recurso 2</title>
  <g id="Capa_2" data-name="Capa 2">
    <g id="Capa_1-2" data-name="Capa 1">
      <g style="opacity: 0.7000000000000001">
        <polyline points="9.8 126.6 10.2 126.3 10.6 126.2 11.1 126 11.5 126 11.9 125.9 12.3 126 12.7 126 13 126.2 13.3 126.3 13.6 126.6 13.8 126.9 14.1 127.2 14.2 127.5 14.4 127.9 14.5 128.4 14.5 128.9 14.6 129.4 14.5 129.9 14.5 130.4 14.4 131 14.2 131.6 14.1 132.1 13.8 132.7 13.6 133.3 13.3 133.8 13 134.4 12.7 134.9 12.3 135.4 11.9 135.9 11.5 136.3 11.1 136.7 10.6 137.1 10.2 137.4 9.8 137.7" style="fill: none;stroke: #000;stroke-miterlimit: 10;stroke-width: 2px"/>
        <line x1="9.8" y1="153.1" x2="9.8" y2="137.7" style="fill: none;stroke: #000;stroke-linecap: round;stroke-linejoin: round;stroke-width: 2px"/>
        <line x1="84.3" y1="110" x2="9.8" y2="153.1" style="fill: none;stroke: #000;stroke-linecap: round;stroke-linejoin: round;stroke-width: 2px"/>
        <line x1="84.3" y1="65.6" x2="84.3" y2="110" style="fill: none;stroke: #000;stroke-linecap: round;stroke-linejoin: round;stroke-width: 2px"/>
        <line x1="84.3" y1="65.6" x2="9.8" y2="108.6" style="fill: none;stroke: #000;stroke-linecap: round;stroke-linejoin: round;stroke-width: 2px"/>
        <line x1="9.8" y1="108.6" x2="9.8" y2="126.6" style="fill: none;stroke: #000;stroke-linecap: round;stroke-linejoin: round;stroke-width: 2px"/>
        <path d="M51.6,171.9,143,119.1m0,0V106.4m0,0L51.6,159.1M143,106.4l-.3-.2M51,158.8v12.7m.6.4-.6-.4m.6-12.4v12.8m0-12.8-.6-.3m91.4-27.5-18.2,10.5M143,131.6l-.6-.3m-24.2,19.8,6-9.3m0,0,.6.4m-50.2,34,43.6-25.1m0,0,.6.3M68.2,174.1l6.4,2.1m0,0,.6.4M51,184.1V198m.6.3L51,198m92-66.4-18.2,10.6m-6,9.2,6-9.2M75.2,176.6l43.6-25.2m-50,23.1,6.4,2.1m-23.6,7.8v13.9m0,0L143,145.5m0,0V131.6M68.8,174.5l-17.2,9.9m16.6-10.3.6.4m-.6-.4L51,184.1m.6.3-.6-.3M84,62.4l.3-.3.6-.6.6-.6.7-.4m0,0,.8-.4.8-.3.9-.3,1-.1.9-.1h1l1,.1,1,.2,1,.2,1,.4.9.4,1,.5.9.6.8.6.8.7.8.7.7.8.6.8.5.9.5.8.3.9.3.9.2.9.1.9v.9l-.1.9-.2.8-.3.8-.3.5M109,92.2l.2-.3.6-.6.6-.5.8-.5m0,0,.7-.4.9-.3.9-.2.9-.2.9-.1h1l1,.1,1,.2,1,.3,1,.3,1,.4.9.5.9.6.9.6.8.7.7.7.7.8.6.9.5.8.5.9.4.9.2.9.2.9.1.9v.9l-.1.8-.2.8-.3.8-.2.6M91.9,6.6,74.7.5M91.9,6.6l.6.3M49.7,82.2l.3-.3.6-.6.6-.6.7-.4m0,0,.8-.4.9-.4.9-.2.9-.2h1.9l1,.1,1,.2,1,.2,1,.4,1,.4.9.5.9.6.9.6.8.7.7.7.7.8.6.8.5.9.5.8.3.9.3.9.2.9.1.9v.9l-.1.9-.2.8-.3.8-.2.5m51.2,38,10.3,5.9M91.9,116l2.1,1.2M74.7,112l.2-.3.6-.6.7-.5.7-.5m0,0,.8-.4.8-.3.9-.3.9-.1,1-.1h1l.9.1,1,.2,1,.3,1,.3,1,.4.9.5.9.6.9.6.8.7.8.7.6.8.6.8.6.9.4.9.4.9.3.9.1.9.1.9v.8l-.1.9-.2.8-.2.8-.3.6M91.9,76.9V59.3m0,56.7v-2.1M58.8,135.2l-14.9,8.6m48-27.8-13.7,8M15.5,102l.2-.3.6-.6.7-.6.7-.5m0,0,.8-.4.8-.3.9-.2.9-.2H23l1,.1,1,.2,1,.2,1,.4,1,.4.9.5.9.5.9.7.8.6.7.8.7.8.6.8.6.8.4.9.4.9.2.9.2.9.1.9v.9l-.1.8-.2.9-.3.8-.2.5m17,57.8v11.8m90.8-64.2v11.8m-.6-11.5v11.8m-101.4.2.3-.3.5-.6.7-.5.7-.5m0,0,.8-.4.8-.3.9-.3.9-.1,1-.1h1l1,.1,1,.2,1,.3,1,.3.9.4,1,.5.9.6.8.6.8.7.8.7.7.8.6.8.5.9.4.9.4.8.3,1,.2.9.1.9-.1.8-.1.9-.1.8-.3.8-.3.6M74.7.5,17.8,33.4M74.7.5l.6.4M17.8,33.4.5,59.3M18.4,33.8l-.6-.4m.6.4L75.3.9M1.1,59.7,18.4,33.8M92.5,6.9V46.7M75.3.9l17.2,6m33.4,99.4.7-.5.6-.5.6-.6.5-.7.4-.7.3-.8.3-.8.1-.8.1-.9-.1-.9-.1-.9-.2-.9-.3-.9-.5-.9-.4-.8-.6-.9-.7-.8-.7-.7-.7-.7-.9-.7-.9-.6-.9-.5-.9-.5-1-.3-1-.4-1-.2-1-.1-1-.1-1,.1-.9.1-.9.2-.9.2-.8.4-.7.4-.7.5-.6.6-.6.7-.4.6-.4.8-.3.8-.2.8-.1.9v.8l.1.9.2.9.3.9.3.9.5.9.5.9.6.8.7.8.7.7.8.7.9.6.9.6.9.5,1,.4,1,.3,1,.3,1,.2,1,.1h1l.9-.1,1-.1.8-.3.9-.3.8-.4m-25-29.8.7-.5.7-.5.6-.6.5-.7.4-.7.3-.8.2-.8.2-.8V69.3l-.1-.9-.3-.9-.3-.9-.4-.9-.5-.9-.5-.8-.7-.8-.7-.8-.8-.7-.8-.6-.9-.6-.9-.5-1-.5-1-.4-.9-.3-1-.2-1-.2h-2l-.9.1-1,.2L88,59l-.8.4-.8.4-.7.5-.6.6-.5.6-.5.7-.3.8-.3.7-.2.9-.1.8v.9l.1.9.2.9.2.9.4.9.4.9.6.8.6.9.7.7.7.8.8.7.9.6.9.5.9.5,1,.5,1,.3,1,.3,1,.1,1,.1.9.1,1-.1.9-.2.9-.2.8-.3.8-.4M66.6,96.3l.8-.5.6-.5.6-.7.5-.6.4-.7.3-.8.3-.8.1-.9.1-.8-.1-.9-.1-.9-.2-.9-.4-.9-.4-.9-.5-.9-.5-.8-.7-.8-.7-.8-.8-.7-.8-.6-.9-.6-.9-.6-.9-.4-1-.4-1-.3-1-.2-1-.2h-2l-.9.1-.9.2-.9.3-.8.3-.8.5-.6.5-.7.6-.5.6-.4.7-.4.7-.3.8-.2.9-.1.8v.9l.1.9.2.9.2.9.4.9.5.9.5.8.6.8.7.8.7.8.8.6.9.7.9.5.9.5,1,.4,1,.4,1,.3,1,.1,1,.1h1.9l.9-.2L65,97l.9-.3.7-.4m25,29.8.7-.5.7-.5.5-.6.5-.7.4-.7.4-.8.2-.8.2-.8v-1.8L95,118l-.2-.9-.3-.9-.4-.9-.5-.8-.6-.9-.6-.8-.7-.7-.8-.7-.9-.7-.8-.6-1-.5-.9-.5-1-.4-1-.3-1-.2-1-.1-1-.1h-.9l-1,.2-.9.2-.9.2-.8.4-.7.4-.7.5-.6.6-.6.6-.4.7-.4.8-.3.8-.2.8-.1.9v.8l.1.9.2.9.3.9.4.9.4.9.5.9.6.8.7.8.8.7.8.7.8.6.9.6,1,.5.9.4,1,.3,1,.3,1,.2,1,.1h1l1-.1.9-.1.9-.3.8-.3.8-.4M57.3,145.9l.7-.5.7-.5.6-.6.5-.7.4-.7.3-.8.2-.8.2-.8v-1.8l-.1-.9-.3-.9-.3-.9-.4-.9-.5-.8-.6-.9-.6-.8-.7-.7-.8-.8-.8-.6-.9-.6-.9-.5-1-.5-1-.4-1-.3-1-.2-1-.1-.9-.1h-1l-1,.1-.9.2-.8.3-.8.4-.8.4-.7.5-.6.6-.5.6-.5.7-.4.8-.2.8-.2.8-.1.8v.9l.1.9.1.9.3.9.4.9.4.9.6.8.6.9.6.7.8.8.8.7.9.6.9.6.9.5,1,.4.9.3,1,.3,1,.2,1,.1h1l1-.1.9-.2.9-.2.8-.3.8-.4M32.4,116.1l.7-.5.6-.6.6-.6.5-.6.4-.8.4-.7.2-.8.1-.9.1-.8-.1-.9-.1-.9-.2-.9-.3-.9-.4-.9-.5-.9-.6-.8-.6-.8-.8-.8-.7-.7-.9-.7-.8-.5-1-.6-.9-.4-1-.4-1-.3-1-.2-1-.2h-2l-.9.1-.9.2-.9.3-.8.3-.7.5-.7.5-.6.6-.6.6-.4.7-.4.7-.3.8-.2.8-.1.9v.9l.1.9.2.9.3.9.3.9.5.9.5.8.6.8.7.8.8.7.8.7.8.7.9.5,1,.5.9.4,1,.4,1,.2,1,.2,1,.1h1.9l1-.2.9-.2.8-.4.8-.3m110.3-9.9L51.3,159M92.8,46.5l49.9,59.7M1.4,99.3,92.8,46.5M1.1,59.7v40M.5,59.3l.6.4M.5,168.8V59.3M51,198,.5,168.8M51,159.4V198m.3-39-.3.4m.3-.4L1.4,99.3m0,0-.3.4" style="fill: none;stroke: #000;stroke-linecap: round;stroke-linejoin: round"/>
      </g>
    </g>
  </g>
</svg>
