<svg xmlns="http://www.w3.org/2000/svg" xmlns:xlink="http://www.w3.org/1999/xlink" width="476.92" height="286.93" viewBox="0 0 476.92 286.93">
  <defs>
    <clipPath id="clip-path">
      <polygon points="297.09 141.84 296.86 134.13 309.6 133.93 309.83 141.64 297.09 141.84" style="fill: none"/>
    </clipPath>
    <clipPath id="clip-path-2">
      <polygon points="351.71 167.15 351.48 159.43 365.09 159.22 365.31 166.94 351.71 167.15" style="fill: none"/>
    </clipPath>
    <clipPath id="clip-path-3">
      <polygon points="298.22 190.68 298 182.97 311.61 182.76 311.83 190.47 298.22 190.68" style="fill: none"/>
    </clipPath>
    <clipPath id="clip-path-4">
      <polygon points="407.47 190.69 407.25 182.97 421.18 182.76 421.4 190.47 407.47 190.69" style="fill: none"/>
    </clipPath>
    <clipPath id="clip-path-5">
      <polygon points="401.89 141.6 401.67 133.89 415.18 133.68 415.4 141.39 401.89 141.6" style="fill: none"/>
    </clipPath>
  </defs>
  <title>Recurso 1</title>
  <g id="Capa_2" data-name="Capa 2">
    <g id="Capa_4" data-name="Capa 4">
      <g style="opacity: 0.7000000000000001">
        <polygon points="1.58 48.35 239.58 48.35 239.58 180.35 8.24 180.35 1.58 48.35" style="fill: none;stroke: #212934;stroke-miterlimit: 10;stroke-width: 3px"/>
        <polygon points="6.91 53.68 233.09 53.68 233.09 172.35 12.24 172.35 6.91 53.68" style="fill: none;stroke: #212934;stroke-miterlimit: 10;stroke-width: 3px"/>
        <polyline points="108.58 180.35 108.58 190.2 146.91 190.2 146.91 180.35" style="fill: none;stroke: #212934;stroke-miterlimit: 10;stroke-width: 3px"/>
        <polyline points="77.58 188.68 70.58 207.68 70.58 211.02 172.58 211.02 172.58 208.35 176.24 185.27 146.91 185.27" style="fill: none;stroke: #212934;stroke-miterlimit: 10;stroke-width: 3px"/>
        <line x1="108.58" y1="186.68" x2="77.58" y2="186.68" style="fill: none;stroke: #212934;stroke-miterlimit: 10;stroke-width: 3px"/>
        <polygon points="251.58 13.5 282.24 13.5 294.24 1.5 417.58 1.5 430.91 16.83 456.24 16.83 450.91 91.5 251.58 91.5 251.58 13.5" style="fill: #fff;stroke: #212934;stroke-miterlimit: 10;stroke-width: 3px"/>
        <polygon points="450.91 91.5 475.08 191.97 475.39 207.96 252.7 209.01 252.44 195.68 251.58 91.5 450.91 91.5" style="fill: #fff;stroke: #212934;stroke-miterlimit: 10;stroke-width: 3px"/>
        <polygon points="252.24 268.83 465.58 268.83 468.91 241.83 440.24 241.83 423.66 255.33 294.91 255.33 281.58 241.83 252.24 241.83 252.24 268.83" style="fill: none;stroke: #212934;stroke-miterlimit: 10;stroke-width: 3px"/>
        <line x1="474.24" y1="210.17" x2="468.91" y2="241.83" style="fill: none;stroke: #212934;stroke-miterlimit: 10;stroke-width: 3px"/>
        <line x1="252.44" y1="206.83" x2="252.44" y2="241.83" style="fill: none;stroke: #212934;stroke-miterlimit: 10;stroke-width: 3px"/>
        <ellipse cx="305.76" cy="164.45" rx="18.67" ry="15.05" style="fill: none;stroke: #212934;stroke-miterlimit: 10;stroke-width: 3px"/>
        <ellipse cx="302.22" cy="115.05" rx="18.67" ry="15.05" style="fill: none;stroke: #212934;stroke-miterlimit: 10;stroke-width: 3px"/>
        <ellipse cx="355.91" cy="139.67" rx="18.67" ry="15.05" style="fill: none;stroke: #212934;stroke-miterlimit: 10;stroke-width: 3px"/>
        <ellipse cx="404.99" cy="115.05" rx="18.67" ry="15.05" style="fill: none;stroke: #212934;stroke-miterlimit: 10;stroke-width: 3px"/>
        <ellipse cx="413.13" cy="164.45" rx="18.67" ry="15.05" style="fill: none;stroke: #212934;stroke-miterlimit: 10;stroke-width: 3px"/>
        <line x1="252.44" y1="194.68" x2="475.39" y2="194.68" style="fill: none;stroke: #212934;stroke-miterlimit: 10;stroke-width: 3px"/>
        <line x1="257.91" y1="210.17" x2="257.91" y2="241.83" style="fill: none;stroke: #212934;stroke-miterlimit: 10;stroke-width: 3px"/>
        <line x1="293.58" y1="246.83" x2="427.58" y2="246.83" style="fill: none;stroke: #212934;stroke-miterlimit: 10;stroke-width: 3px"/>
        <line x1="435.58" y1="210.17" x2="449.58" y2="236.17" style="fill: none;stroke: #212934;stroke-miterlimit: 10;stroke-width: 3px"/>
        <path d="M287.09,120.17s13.48-15.67,30.82,0" style="fill: none;stroke: #212934;stroke-miterlimit: 10;stroke-width: 3px"/>
        <path d="M338.5,146.07s15-17.78,34.31,0" style="fill: none;stroke: #212934;stroke-miterlimit: 10;stroke-width: 3px"/>
        <path d="M388.09,121.45s14.24-17.78,32.54,0" style="fill: none;stroke: #212934;stroke-miterlimit: 10;stroke-width: 3px"/>
        <path d="M396.86,168.4s14.24-17.78,32.54,0" style="fill: none;stroke: #212934;stroke-miterlimit: 10;stroke-width: 3px"/>
        <path d="M289.49,170.62s14.24-17.78,32.54,0" style="fill: none;stroke: #212934;stroke-miterlimit: 10;stroke-width: 3px"/>
        <line x1="70.58" y1="207.68" x2="172.58" y2="207.68" style="fill: #fff;stroke: #212934;stroke-miterlimit: 10;stroke-width: 3px"/>
        <path d="M230.24,194.82" style="fill: #fff;stroke: #212934;stroke-miterlimit: 10;stroke-width: 3px"/>
        <circle cx="185.05" cy="254.04" r="9.48" style="fill: #fff;stroke: #212934;stroke-miterlimit: 10;stroke-width: 3px"/>
        <text transform="translate(93.08 121.45)" style="font-size: 17.67181968688965px;font-family: MyriadPro-Regular, Myriad Pro"><tspan style="letter-spacing: 0.005995818943795997em">S</tspan><tspan x="8.82" y="0">c</tspan><tspan x="16.73" y="0" style="letter-spacing: -0.01000224174034171em">r</tspan><tspan x="22.34" y="0">een</tspan></text>
        <text transform="translate(166.24 236.17)" style="font-size: 12px;font-family: MyriadPro-Regular, Myriad Pro">Sphe<tspan x="25.42" y="0" style="letter-spacing: -0.009969075520833334em">r</tspan><tspan x="29.22" y="0">e</tspan></text>
        <text transform="translate(319.5 283.92)" style="font-size: 12px;font-family: MyriadPro-Regular, Myriad Pro"><tspan style="letter-spacing: -0.0159912109375em">P</tspan><tspan x="6.19" y="0" style="letter-spacing: -0.009969075520833334em">r</tspan><tspan x="10" y="0" style="letter-spacing: -0.013997395833333334em">o</tspan><tspan x="16.42" y="0">ximi</tspan><tspan x="37.6" y="0" style="letter-spacing: 0.008992513020833334em">t</tspan><tspan x="41.68" y="0">y </tspan><tspan x="49.87" y="0" style="letter-spacing: 0.0059814453125em">S</tspan><tspan x="55.86" y="0">ensor</tspan></text>
        <text transform="translate(309.58 234.64)" style="font-size: 17.67181968688965px;font-family: MyriadPro-Regular, Myriad Pro"><tspan style="letter-spacing: -0.010996939813966851em">C</tspan><tspan x="10.06" y="0">ompone</tspan><tspan x="72.91" y="0" style="letter-spacing: -0.00397879229450057em">n</tspan><tspan x="82.65" y="0">ts</tspan></text>
        <circle cx="352.31" cy="257.7" r="6.81" style="fill: #fff;stroke: #212934;stroke-miterlimit: 10;stroke-width: 3px"/>
        <circle cx="369.58" cy="257.7" r="6.81" style="fill: #fff;stroke: #212934;stroke-miterlimit: 10;stroke-width: 3px"/>
        <g style="opacity: 0.8">
          <g style="isolation: isolate">
            <g style="clip-path: url(#clip-path)">
              <g>
                <polyline points="299.91 134.59 299.19 134.6 297.48 135.36 297.6 135.69 298.97 135.1 299.22 135.1 299.25 135.3 299.43 141.29 300.1 141.28 299.91 134.59"/>
                <path d="M297.6,135.7l-.12-.33,1.71-.76h.72l.19,6.68h-.67l-.17-6,0-.2H299l-1.37.59m2.79-1.5-1.28,0-2.22,1,.39,1.13,1.48-.66.18,6.06,1.66,0-.22-7.47"/>
                <path d="M306.51,141c-1.3,0-2.1-1.12-2.16-3s.71-3.16,2-3.18c.77,0,2.08.37,2.16,3s-1.21,3.17-2,3.18m-.11-6.58c-1.76,0-2.82,1.38-2.76,3.53s1.14,3.43,2.82,3.4c1.84,0,2.82-1.3,2.76-3.59s-1.09-3.37-2.82-3.34"/>
                <path d="M306.5,140.56c-1,0-1.6-1-1.64-2.66s.54-2.77,1.5-2.78c1.36,0,1.61,1.66,1.64,2.66s-.13,2.76-1.5,2.78m-.15-5.84c-1.29,0-2.05,1.24-2,3.18s.86,3.07,2.16,3c.78,0,2.08-.44,2-3.18s-1.38-3.06-2.16-3m.11,6.58c-1.67,0-2.73-1.25-2.82-3.4s1-3.5,2.76-3.53,2.75,1.2,2.82,3.34-.91,3.56-2.76,3.59m-.07-7.32c-2.07,0-3.31,1.54-3.24,3.93s1.36,3.81,3.32,3.78c2.13,0,3.31-1.48,3.24-4s-1.31-3.76-3.32-3.73"/>
              </g>
            </g>
          </g>
        </g>
        <g style="opacity: 0.8">
          <g style="isolation: isolate">
            <g style="clip-path: url(#clip-path-2)">
              <g>
                <path d="M356.93,159.87l-3.81.06-.42,3a8.68,8.68,0,0,1,.94-.06c1.78,0,2.83.6,2.88,1.72s-.95,1.75-2.32,1.77a5.55,5.55,0,0,1-1.78-.28l-.13.36a5.4,5.4,0,0,0,1.93.3c1.79,0,3.06-1,3-2.27a1.82,1.82,0,0,0-1.2-1.62,4.29,4.29,0,0,0-1.82-.33,5.72,5.72,0,0,0-.68,0l-.32,0,0-.26.32-2,3.38-.05v-.41"/>
                <path d="M352.7,162.91l.42-3,3.81-.06v.41l-3.38.05-.32,2,0,.26.32,0a5.72,5.72,0,0,1,.68,0,4.29,4.29,0,0,1,1.82.33,1.82,1.82,0,0,1,1.2,1.62c0,1.29-1.23,2.24-3,2.27a5.4,5.4,0,0,1-1.93-.3l.13-.36a5.55,5.55,0,0,0,1.78.28c1.37,0,2.35-.76,2.32-1.77s-1.09-1.75-2.88-1.72a8.68,8.68,0,0,0-.94.06m4.73-3.44-4.76.07-.54,3.84.39,0c.31,0,.68-.07,1.14-.08,1.05,0,2.32.2,2.37,1.33,0,.88-.91,1.36-1.83,1.37a4.53,4.53,0,0,1-1.8-.34l-.27-.12-.43,1.12.16.08a5.55,5.55,0,0,0,2.38.43c2.08,0,3.55-1.16,3.51-2.67a2.21,2.21,0,0,0-1.45-2,4.87,4.87,0,0,0-2.07-.38l-.43,0,.22-1.4,3.46-.05,0-1.2"/>
                <path d="M362,166.25c-1.3,0-2.1-1.12-2.16-3.05s.71-3.16,2-3.18c.77,0,2.08.37,2.16,3s-1.21,3.17-2,3.18m-.11-6.58c-1.76,0-2.82,1.38-2.76,3.53s1.13,3.42,2.81,3.39c1.84,0,2.83-1.3,2.76-3.58s-1.08-3.37-2.81-3.34"/>
                <path d="M362,165.85c-1,0-1.6-1-1.64-2.66s.54-2.76,1.5-2.78c1.37,0,1.62,1.66,1.65,2.66s-.13,2.76-1.5,2.78m-.16-5.83c-1.28,0-2,1.23-2,3.18s.86,3.07,2.16,3.05c.77,0,2.07-.44,2-3.18s-1.38-3.06-2.16-3m.11,6.57c-1.67,0-2.72-1.25-2.81-3.39s1-3.5,2.76-3.53,2.74,1.19,2.81,3.34-.91,3.55-2.76,3.58m-.06-7.32c-2.08,0-3.32,1.54-3.25,3.93S360,167,361.95,167c2.14,0,3.32-1.49,3.25-4s-1.31-3.76-3.32-3.73"/>
              </g>
            </g>
          </g>
        </g>
        <g style="opacity: 0.8">
          <g style="isolation: isolate">
            <g style="clip-path: url(#clip-path-3)">
              <g>
                <path d="M301,183.32a5.05,5.05,0,0,0-2,.45l.15.32a4.19,4.19,0,0,1,1.65-.39c1.34,0,1.85.63,1.86,1.24,0,.91-1.09,1.41-2.21,1.43H300v.32h.42c1.54,0,2.56.59,2.61,1.57a1.34,1.34,0,0,1-.5,1.08,2.73,2.73,0,0,1-1.73.52,5.18,5.18,0,0,1-1.85-.33l-.15.37a5.57,5.57,0,0,0,2,.34c2.09,0,3-1,3-2s-.75-1.44-1.85-1.59l-.2,0v-.3l.16-.07c1-.29,1.46-.82,1.44-1.5s-.65-1.48-2.36-1.45"/>
                <path d="M299.13,184.09l-.15-.32a5.05,5.05,0,0,1,2-.45c1.71,0,2.34.76,2.36,1.45s-.49,1.22-1.44,1.5l-.16.07v.3l.2,0c1.09.15,1.82.78,1.85,1.59s-.88,1.94-3,2a5.57,5.57,0,0,1-2-.34l.15-.37a5.18,5.18,0,0,0,1.85.33,2.73,2.73,0,0,0,1.73-.52,1.34,1.34,0,0,0,.5-1.08c0-1-1.07-1.6-2.61-1.57H300v-.32h.42c1.12,0,2.24-.52,2.21-1.43,0-.61-.52-1.26-1.86-1.24a4.19,4.19,0,0,0-1.65.39m1.86-1.17a5.29,5.29,0,0,0-2.47.62l-.15.09.53,1.07.26-.15a3.61,3.61,0,0,1,1.63-.46c.85,0,1.33.3,1.35.85,0,.73-1,1-1.72,1h-.93l0,1.12h.93c1,0,2.06.29,2.1,1.19a1,1,0,0,1-.36.8,2.15,2.15,0,0,1-1.37.4,4.69,4.69,0,0,1-1.87-.38l-.26-.13-.47,1.13.16.08a5.87,5.87,0,0,0,2.48.47c2.43,0,3.48-1.21,3.45-2.37a2.07,2.07,0,0,0-1.64-1.84,1.82,1.82,0,0,0,1.19-1.66c0-.94-.93-1.87-2.87-1.84"/>
                <path d="M308.51,189.78c-1.3,0-2.09-1.12-2.15-3s.7-3.16,2-3.18c.77,0,2.08.37,2.16,3.05s-1.21,3.16-2,3.18m-.1-6.57c-1.77,0-2.83,1.37-2.77,3.52s1.14,3.43,2.82,3.4c1.84,0,2.82-1.3,2.76-3.58s-1.09-3.37-2.81-3.34"/>
                <path d="M308.5,189.39c-1,0-1.6-1-1.64-2.66s.54-2.76,1.5-2.78c1.37,0,1.61,1.66,1.64,2.66s-.13,2.76-1.5,2.78m-.15-5.84c-1.29,0-2,1.24-2,3.18s.85,3.07,2.15,3c.78,0,2.08-.44,2-3.18s-1.38-3.07-2.16-3.05m.11,6.58c-1.67,0-2.73-1.25-2.82-3.4s1-3.49,2.77-3.52,2.74,1.19,2.81,3.34-.91,3.55-2.76,3.58m-.06-7.32c-2.08,0-3.32,1.54-3.25,3.93s1.37,3.81,3.32,3.78c2.13,0,3.32-1.48,3.25-4s-1.31-3.76-3.32-3.73"/>
              </g>
            </g>
          </g>
        </g>
        <g style="opacity: 0.8">
          <g style="isolation: isolate">
            <g style="clip-path: url(#clip-path-4)">
              <g>
                <path d="M408.62,187.87v-.26l0-.07,2.12-2.44c.26-.36.47-.66.7-1l.07-.11H412l0,.21c0,.36,0,.73,0,1.1l.07,2.56-3.43.05m3.95-4.46h-.93l-3.75,4.44v.37l4.16-.06.06,1.93h.65l-.06-1.93,1.25,0v-.36l-1.25,0-.13-4.39"/>
                <path d="M409.33,187.46l1.87-2.16.27-.38v.34l.06,2.17-2.21,0m2.63-3.52h-.41l-.07.11c-.23.37-.44.68-.7,1l-2.12,2.44,0,.07v.26l3.43-.05-.07-2.56c0-.36,0-.73,0-1.1l0-.21m-4.05,4.29v-.37l3.75-4.44h.93l.13,4.39,1.25,0v.36l-1.25,0,.06,1.93h-.65l-.06-1.93-4.16.06m5.16-5.23-1.69,0-4,4.71,0,.9,4.17-.06.06,1.93,1.65,0-.06-1.93,1.25,0,0-1.14-1.25,0-.13-4.4"/>
                <path d="M418.08,189.78c-1.3,0-2.1-1.12-2.16-3s.71-3.16,2-3.18c.77,0,2.08.37,2.16,3.05s-1.21,3.16-2,3.18m-.11-6.57c-1.76,0-2.82,1.37-2.76,3.52s1.14,3.43,2.82,3.4c1.84,0,2.82-1.3,2.76-3.58s-1.09-3.37-2.82-3.34"/>
                <path d="M418.07,189.39c-1,0-1.6-1-1.64-2.66s.54-2.76,1.5-2.78c1.36,0,1.61,1.66,1.64,2.66s-.13,2.76-1.5,2.78m-.15-5.84c-1.29,0-2.05,1.24-2,3.18s.86,3.07,2.16,3c.78,0,2.08-.44,2-3.18s-1.38-3.07-2.16-3.05m.11,6.58c-1.67,0-2.73-1.25-2.82-3.4s1-3.49,2.76-3.52,2.75,1.19,2.82,3.34-.91,3.55-2.76,3.58m-.07-7.32c-2.07,0-3.31,1.54-3.24,3.93s1.37,3.81,3.32,3.78c2.13,0,3.31-1.49,3.24-4s-1.31-3.76-3.32-3.73"/>
              </g>
            </g>
          </g>
        </g>
        <g style="opacity: 0.8">
          <g style="isolation: isolate">
            <g style="clip-path: url(#clip-path-5)">
              <g>
                <path d="M404.68,134.24a4.33,4.33,0,0,0-2.21.62l.19.3a3.64,3.64,0,0,1,1.79-.51c1.27,0,2,.56,2.07,1.55,0,1.16-1,2.12-3.3,3.89l-.85.69v.31l5.22-.08v-.4l-4,.06v-.28l.08-.09.7-.53c1.72-1.36,2.94-2.44,2.9-3.7,0-.86-.71-1.85-2.55-1.82"/>
                <path d="M402.66,135.16l-.19-.3a4.33,4.33,0,0,1,2.21-.62c1.84,0,2.52,1,2.55,1.82,0,1.27-1.18,2.34-2.9,3.7l-.7.53-.08.09v.28l4-.06v.4l-5.22.08v-.31l.85-.69c2.26-1.77,3.32-2.73,3.3-3.89,0-1-.8-1.57-2.07-1.55a3.64,3.64,0,0,0-1.79.51m2-1.31a4.87,4.87,0,0,0-2.68.8l-.14.1.63,1,.25-.17a3.13,3.13,0,0,1,1.72-.58c1.27,0,1.55.62,1.56,1.16,0,1-.92,1.86-3.15,3.61l-1,.81,0,.87,6.22-.1,0-1.19-3.66.06.27-.21c1.81-1.44,3.09-2.57,3-4,0-1.12-1-2.24-3.05-2.21"/>
                <path d="M412.09,140.7c-1.3,0-2.1-1.12-2.16-3s.7-3.16,2-3.18c.77,0,2.08.37,2.16,3s-1.21,3.17-2,3.18m-.11-6.58c-1.77,0-2.82,1.38-2.76,3.53s1.13,3.43,2.81,3.4c1.84,0,2.82-1.3,2.76-3.59s-1.09-3.37-2.81-3.34"/>
                <path d="M412.08,140.3c-1,0-1.6-1-1.65-2.66s.54-2.77,1.5-2.78c1.37,0,1.61,1.66,1.64,2.66s-.12,2.76-1.5,2.78m-.16-5.83c-1.29,0-2,1.24-2,3.18s.86,3.07,2.16,3c.77,0,2.07-.44,2-3.18s-1.38-3.06-2.16-3m.11,6.58c-1.67,0-2.73-1.25-2.81-3.4s1-3.5,2.76-3.53,2.74,1.2,2.81,3.34-.91,3.56-2.76,3.59m-.06-7.32c-2.08,0-3.32,1.54-3.25,3.93s1.37,3.81,3.32,3.78c2.13,0,3.32-1.48,3.25-4S414,133.7,412,133.73"/>
              </g>
            </g>
          </g>
        </g>
      </g>
    </g>
  </g>
</svg>
