<svg xmlns="http://www.w3.org/2000/svg" xmlns:xlink="http://www.w3.org/1999/xlink" width="668.83" height="402.53" viewBox="0 0 668.83 402.53">
  <defs>
    <filter id="luminosity-invert-noclip" x="352.27" y="337.68" width="307.62" height="40.94" filterUnits="userSpaceOnUse" color-interpolation-filters="sRGB">
      <feColorMatrix values="-1 0 0 0 1 0 -1 0 0 1 0 0 -1 0 1 0 0 0 1 0" result="invert"/>
      <feFlood flood-color="#fff" result="bg"/>
      <feBlend in="invert" in2="bg"/>
    </filter>
    <mask id="mask" x="352.27" y="337.68" width="307.62" height="40.94" maskUnits="userSpaceOnUse">
      <g style="filter: url(#luminosity-invert-noclip)">
        <circle cx="518.63" cy="361.48" r="9.57" style="fill: #fff"/>
        <circle cx="494.37" cy="361.48" r="9.57" style="fill: #fff"/>
      </g>
    </mask>
    <clipPath id="clip-path">
      <polygon points="416.89 198.6 416.58 187.93 434.26 187.66 434.57 198.32 416.89 198.6" style="fill: none"/>
    </clipPath>
    <clipPath id="clip-path-2">
      <polygon points="493.63 234.16 493.32 223.49 512.22 223.2 512.53 233.87 493.63 234.16" style="fill: none"/>
    </clipPath>
    <clipPath id="clip-path-3">
      <polygon points="418.49 267.22 418.18 256.56 437.07 256.27 437.38 266.93 418.49 267.22" style="fill: none"/>
    </clipPath>
    <clipPath id="clip-path-4">
      <polygon points="571.97 267.23 571.66 256.56 591.02 256.26 591.33 266.93 571.97 267.23" style="fill: none"/>
    </clipPath>
    <clipPath id="clip-path-5">
      <polygon points="564.12 198.26 563.81 187.6 582.6 187.31 582.91 197.97 564.12 198.26" style="fill: none"/>
    </clipPath>
  </defs>
  <title>Recurso 1</title>
  <g id="Capa_2" data-name="Capa 2">
    <g id="Capa_1-2" data-name="Capa 1">
      <g style="opacity: 0.7000000000000001">
        <polygon points="1.58 67.32 335.97 67.32 335.97 252.79 10.95 252.79 1.58 67.32" style="fill: none;stroke: #212934;stroke-miterlimit: 10;stroke-width: 3px"/>
        <polygon points="9.07 74.82 326.87 74.82 326.87 241.55 16.57 241.55 9.07 74.82" style="fill: none;stroke: #212934;stroke-miterlimit: 10;stroke-width: 3px"/>
        <polyline points="151.92 252.79 151.92 266.63 205.78 266.63 205.78 252.79" style="fill: none;stroke: #212934;stroke-miterlimit: 10;stroke-width: 3px"/>
        <polyline points="108.36 264.5 98.53 291.19 98.53 295.88 241.84 295.88 241.84 292.13 246.99 259.71 205.78 259.71" style="fill: none;stroke: #212934;stroke-miterlimit: 10;stroke-width: 3px"/>
        <line x1="151.92" y1="261.69" x2="108.36" y2="261.69" style="fill: none;stroke: #212934;stroke-miterlimit: 10;stroke-width: 3px"/>
        <polygon points="352.83 18.36 395.92 18.36 412.78 1.5 586.07 1.5 604.8 23.04 640.4 23.04 632.9 127.95 352.83 127.95 352.83 18.36" style="fill: none;stroke: #212934;stroke-miterlimit: 10;stroke-width: 3px"/>
        <polygon points="632.9 127.95 666.86 269.11 667.3 291.59 354.41 293.06 354.05 274.33 352.83 127.95 632.9 127.95" style="fill: none;stroke: #212934;stroke-miterlimit: 10;stroke-width: 3px"/>
        <g style="mask: url(#mask)">
          <polygon points="353.77 377.11 653.51 377.11 658.19 339.18 617.92 339.18 594.61 358.14 413.72 358.14 394.99 339.18 353.77 339.18 353.77 377.11" style="fill: none;stroke: #212934;stroke-miterlimit: 10;stroke-width: 3px"/>
        </g>
        <line x1="665.69" y1="294.68" x2="658.19" y2="339.18" style="fill: none;stroke: #212934;stroke-miterlimit: 10;stroke-width: 3px"/>
        <line x1="354.04" y1="290" x2="354.04" y2="339.18" style="fill: none;stroke: #212934;stroke-miterlimit: 10;stroke-width: 3px"/>
        <ellipse cx="428.96" cy="230.45" rx="26.23" ry="21.15" style="fill: none;stroke: #212934;stroke-miterlimit: 10;stroke-width: 3px"/>
        <ellipse cx="423.98" cy="161.05" rx="26.23" ry="21.15" style="fill: none;stroke: #212934;stroke-miterlimit: 10;stroke-width: 3px"/>
        <ellipse cx="499.43" cy="195.64" rx="26.23" ry="21.15" style="fill: none;stroke: #212934;stroke-miterlimit: 10;stroke-width: 3px"/>
        <ellipse cx="568.39" cy="161.05" rx="26.23" ry="21.15" style="fill: none;stroke: #212934;stroke-miterlimit: 10;stroke-width: 3px"/>
        <ellipse cx="579.82" cy="230.45" rx="26.23" ry="21.15" style="fill: none;stroke: #212934;stroke-miterlimit: 10;stroke-width: 3px"/>
        <line x1="354.04" y1="272.93" x2="667.3" y2="272.93" style="fill: none;stroke: #212934;stroke-miterlimit: 10;stroke-width: 3px"/>
        <line x1="361.73" y1="294.68" x2="361.73" y2="339.18" style="fill: none;stroke: #212934;stroke-miterlimit: 10;stroke-width: 3px"/>
        <line x1="411.85" y1="346.2" x2="600.12" y2="346.2" style="fill: none;stroke: #212934;stroke-miterlimit: 10;stroke-width: 3px"/>
        <line x1="611.36" y1="294.68" x2="631.03" y2="331.21" style="fill: none;stroke: #212934;stroke-miterlimit: 10;stroke-width: 3px"/>
        <path d="M402.74,168.23s18.94-22,43.3,0" style="fill: none;stroke: #212934;stroke-miterlimit: 10;stroke-width: 3px"/>
        <path d="M475,204.63s21.09-25,48.2,0" style="fill: none;stroke: #212934;stroke-miterlimit: 10;stroke-width: 3px"/>
        <path d="M544.64,170s20-25,45.72,0" style="fill: none;stroke: #212934;stroke-miterlimit: 10;stroke-width: 3px"/>
        <path d="M557,236s20-25,45.72,0" style="fill: none;stroke: #212934;stroke-miterlimit: 10;stroke-width: 3px"/>
        <path d="M406.11,239.12s20-25,45.72,0" style="fill: none;stroke: #212934;stroke-miterlimit: 10;stroke-width: 3px"/>
        <line x1="98.52" y1="291.19" x2="241.84" y2="291.19" style="fill: #fff;stroke: #212934;stroke-miterlimit: 10;stroke-width: 3px"/>
        <path d="M322.86,273.12" style="fill: #fff;stroke: #212934;stroke-miterlimit: 10;stroke-width: 3px"/>
        <circle cx="259.37" cy="356.32" r="13.32" style="fill: none;stroke: #212934;stroke-miterlimit: 10;stroke-width: 3px"/>
        <text transform="translate(130.14 170.04)" style="font-size: 24.82940673828125px;font-family: MyriadPro-Regular, Myriad Pro"><tspan style="letter-spacing: 0.005978294268752842em">S</tspan><tspan x="12.39" y="0" style="letter-spacing: 0.00003933088334705817em">c</tspan><tspan x="23.51" y="0" style="letter-spacing: -0.010029375253499834em">r</tspan><tspan x="31.38" y="0">een</tspan></text>
        <text transform="translate(232.93 331.21)" style="font-size: 16.860340118408203px;font-family: MyriadPro-Regular, Myriad Pro">Sphe<tspan x="35.71" y="0" style="letter-spacing: -0.010020279028389508em">r</tspan><tspan x="41.05" y="0" style="letter-spacing: -0.00005792068802537288em">e</tspan></text>
        <text transform="translate(448.27 398.31)" style="font-size: 16.860340118408203px;font-family: MyriadPro-Regular, Myriad Pro"><tspan style="letter-spacing: -0.015986109895002914em">P</tspan><tspan x="8.7" y="0" style="letter-spacing: -0.010020279028389508em">r</tspan><tspan x="14.04" y="0" style="letter-spacing: -0.013958885814114865em">o</tspan><tspan x="23.07" y="0" style="letter-spacing: -0.00005792068802537288em">ximi</tspan><tspan x="52.82" y="0" style="letter-spacing: 0.008977706643932796em">t</tspan><tspan x="58.56" y="0">y </tspan><tspan x="70.07" y="0" style="letter-spacing: 0.005965830866613407em">S</tspan><tspan x="78.48" y="0" style="letter-spacing: -0.00005792068802537288em">ensor</tspan></text>
        <text transform="translate(434.33 329.07)" style="font-size: 24.82940673828125px;font-family: MyriadPro-Regular, Myriad Pro"><tspan style="letter-spacing: -0.01097331645382923em">C</tspan><tspan x="14.13" y="0">ompone</tspan><tspan x="102.45" y="0" style="letter-spacing: -0.004011750101399933em">n</tspan><tspan x="116.13" y="0">ts</tspan></text>
        <g style="opacity: 0.8">
          <g style="isolation: isolate">
            <g style="clip-path: url(#clip-path)">
              <g>
                <polyline points="420.84 188.43 419.69 188.44 417.2 189.55 417.43 190.17 419.43 189.31 419.67 189.31 419.72 189.5 419.97 197.99 421.11 197.97 420.84 188.43"/>
                <path d="M417.43,190.17l-.22-.62,2.49-1.11,1.14,0,.28,9.54L420,198l-.25-8.49-.05-.19h-.24l-2,.86m3.9-2.15-1.71,0-3,1.31.5,1.42,2.11-.94.25,8.56,2.15,0-.3-10.33"/>
                <path d="M430,197.36c-1.75,0-2.84-1.55-2.92-4.21s1-4.35,2.69-4.38,2.85,1.46,2.93,4.2-.88,4.36-2.7,4.39m-.15-9.24c-2.55,0-4.07,2-4,5s1.64,4.88,4,4.85c2.66,0,4.07-1.86,4-5.11-.09-3.07-1.56-4.81-4-4.78"/>
                <path d="M430,197c-1.42,0-2.35-1.44-2.41-3.82s.78-4,2.21-4c2,0,2.37,2.38,2.41,3.82s-.18,4-2.21,4m-.22-8.19c-1.74,0-2.77,1.71-2.69,4.38s1.17,4.24,2.92,4.21,2.78-1.59,2.7-4.39-1.12-4.23-2.93-4.2m.15,9.23c-2.41,0-3.92-1.78-4-4.85s1.43-5,4-5,4,1.7,4,4.78c.09,3.25-1.31,5.06-4,5.11m-.08-10.27c-2.85,0-4.57,2.13-4.47,5.43s1.88,5.28,4.56,5.24c2.94,0,4.57-2.06,4.47-5.51s-1.76-5.2-4.56-5.16"/>
              </g>
            </g>
          </g>
        </g>
        <g style="opacity: 0.8">
          <g style="isolation: isolate">
            <g style="clip-path: url(#clip-path-2)">
              <g>
                <path d="M501,223.93l-5.54.09-.61,4.36c.39,0,.87-.08,1.45-.09,2.43,0,3.87.81,3.93,2.34,0,1.37-1.28,2.37-3.15,2.4a7.4,7.4,0,0,1-2.56-.42l-.25.65a7.49,7.49,0,0,0,2.85.46c2.56,0,4.39-1.41,4.33-3.27a2.63,2.63,0,0,0-1.74-2.35,6.14,6.14,0,0,0-2.6-.47,8.16,8.16,0,0,0-1,.07l-.32,0v-.26l.43-2.73,4.76-.07,0-.74"/>
                <path d="M494.8,228.38l.61-4.36,5.54-.09,0,.74-4.76.07-.43,2.73v.26l.32,0a8.16,8.16,0,0,1,1-.07,6.14,6.14,0,0,1,2.6.47,2.63,2.63,0,0,1,1.74,2.35c.05,1.86-1.77,3.23-4.33,3.27a7.49,7.49,0,0,1-2.85-.46l.25-.65A7.4,7.4,0,0,0,497,233c1.87,0,3.19-1,3.15-2.4-.06-1.53-1.5-2.37-3.93-2.34-.58,0-1.05.05-1.45.09m6.65-4.84-6.49.1-.73,5.2.42,0a15.93,15.93,0,0,1,1.61-.12c2.18,0,3.37.65,3.42,2s-1.32,2-2.67,2a6.55,6.55,0,0,1-2.58-.48l-.27-.12-.54,1.41.16.08a7.85,7.85,0,0,0,3.29.59c2.85,0,4.89-1.58,4.83-3.67a3,3,0,0,0-2-2.69,6.7,6.7,0,0,0-2.85-.53,6.82,6.82,0,0,0-.73,0l.34-2.14,4.83-.07,0-1.52"/>
                <path d="M508,232.9c-1.75,0-2.85-1.54-2.93-4.2s1-4.36,2.7-4.39,2.84,1.47,2.92,4.21-.87,4.35-2.69,4.38m-.15-9.23c-2.55,0-4.07,2-4,5s1.64,4.88,4.06,4.85c2.65,0,4.07-1.86,4-5.11-.09-3.07-1.56-4.81-4-4.77"/>
                <path d="M508,232.51c-1.42,0-2.35-1.44-2.41-3.82s.78-4,2.21-4c2,0,2.37,2.38,2.41,3.82s-.19,4-2.21,4m-.22-8.2c-1.75,0-2.78,1.71-2.7,4.39s1.18,4.23,2.93,4.2,2.77-1.59,2.69-4.38-1.11-4.24-2.92-4.21m.15,9.24c-2.41,0-3.93-1.78-4.06-4.85s1.44-5,4-5,4,1.7,4,4.77c.09,3.26-1.32,5.07-4,5.11m-.08-10.28c-2.85,0-4.57,2.13-4.47,5.44s1.88,5.27,4.56,5.23c2.93,0,4.57-2,4.47-5.51s-1.76-5.2-4.56-5.16"/>
              </g>
            </g>
          </g>
        </g>
        <g style="opacity: 0.8">
          <g style="isolation: isolate">
            <g style="clip-path: url(#clip-path-3)">
              <g>
                <path d="M422.26,256.88a7,7,0,0,0-3,.69l.3.59a5.75,5.75,0,0,1,2.37-.59c1.81,0,2.48.84,2.51,1.66,0,1.23-1.48,1.9-3,1.92h-.69l0,.61h.69c1.6,0,3.5.52,3.56,2.13a1.78,1.78,0,0,1-.67,1.47,3.7,3.7,0,0,1-2.37.71,7.22,7.22,0,0,1-2.66-.49l-.28.67a8,8,0,0,0,3,.51c3,0,4.3-1.46,4.26-2.85,0-1.18-1.08-2.1-2.67-2.32l-.21,0v-.31l.17-.07c1.37-.42,2.13-1.2,2.1-2.19s-.94-2.16-3.42-2.12"/>
                <path d="M419.59,258.17l-.3-.59a7,7,0,0,1,3-.69c2.47,0,3.39,1.12,3.42,2.12s-.72,1.77-2.1,2.19l-.17.07v.31l.21,0c1.59.22,2.63,1.14,2.67,2.32,0,1.39-1.26,2.8-4.26,2.85a8,8,0,0,1-3-.51l.28-.67a7.22,7.22,0,0,0,2.66.49,3.7,3.7,0,0,0,2.37-.71,1.78,1.78,0,0,0,.67-1.47c-.06-1.61-2-2.15-3.56-2.13h-.69l0-.61h.69c1.52,0,3-.69,3-1.92,0-.82-.7-1.69-2.51-1.66a5.75,5.75,0,0,0-2.37.59m2.66-1.68a7.44,7.44,0,0,0-3.41.86l-.14.09.66,1.36.27-.16A5.15,5.15,0,0,1,422,258c1.24,0,2,.45,2,1.27,0,1.09-1.49,1.51-2.51,1.53l-1.2,0,0,1.4,1.2,0c1.44,0,3,.42,3.06,1.75a1.43,1.43,0,0,1-.54,1.18,3.14,3.14,0,0,1-2,.59,6.56,6.56,0,0,1-2.66-.56l-.27-.13-.59,1.43.16.08a8,8,0,0,0,3.42.65c3.35-.05,4.79-1.67,4.75-3.25a2.89,2.89,0,0,0-2.44-2.57,2.55,2.55,0,0,0,1.81-2.35c0-1.28-1.26-2.55-3.93-2.51"/>
                <path d="M432.82,266c-1.75,0-2.84-1.55-2.92-4.21s1-4.35,2.7-4.38,2.84,1.46,2.92,4.21-.87,4.35-2.7,4.38m-.15-9.24c-2.54,0-4.07,2-4,5s1.64,4.88,4.06,4.85c2.65,0,4.07-1.86,4-5.11-.09-3.07-1.57-4.81-4.05-4.78"/>
                <path d="M432.81,265.57c-1.42,0-2.35-1.44-2.41-3.82s.78-4,2.22-4c2,0,2.36,2.38,2.41,3.82s-.18,3.94-2.21,4m-.21-8.19c-1.75,0-2.78,1.71-2.7,4.38s1.17,4.24,2.92,4.21,2.78-1.59,2.7-4.38-1.12-4.24-2.92-4.21m.15,9.23c-2.41,0-3.93-1.78-4.06-4.85s1.44-5,4-5,4,1.7,4.05,4.78c.09,3.25-1.32,5.06-4,5.11m-.09-10.27c-2.85,0-4.56,2.13-4.46,5.43s1.88,5.28,4.56,5.24c2.93,0,4.56-2.06,4.46-5.51s-1.75-5.2-4.56-5.16"/>
              </g>
            </g>
          </g>
        </g>
        <g style="opacity: 0.8">
          <g style="isolation: isolate">
            <g style="clip-path: url(#clip-path-4)">
              <g>
                <path d="M573.58,263.27V263l0-.09,3-3.43c.35-.5.65-.93,1-1.46l.07-.11h.41l.05.21c0,.51,0,1,0,1.54l.1,3.52-4.62.07m5.54-6.27-1.46,0-5.31,6.29,0,.63,5.84-.09.08,2.71,1.11,0-.08-2.71,1.76,0,0-.65-1.76,0-.18-6.18"/>
                <path d="M574.28,262.87l2.74-3.15c.21-.29.4-.55.57-.82,0,.26,0,.53,0,.8l.09,3.12-3.41.05m3.78-4.94h-.41l-.07.11c-.34.53-.63,1-1,1.46l-3,3.43,0,.09v.26l4.62-.07-.1-3.52c0-.52,0-1,0-1.54l-.05-.21m-5.69,6,0-.63,5.31-6.29,1.46,0,.18,6.18,1.76,0,0,.65-1.76,0,.08,2.71-1.11,0-.08-2.71-5.84.09m7.24-7.34-2.22,0-5.54,6.57,0,1.14,5.85-.09.08,2.7,2.11,0-.08-2.7,1.75,0,0-1.45-1.75,0-.18-6.17"/>
                <path d="M586.78,266c-1.75,0-2.84-1.54-2.92-4.21s1-4.35,2.7-4.38,2.84,1.46,2.92,4.21-.87,4.35-2.7,4.38m-.15-9.24c-2.54,0-4.07,2-4,5s1.64,4.89,4.06,4.85c2.65,0,4.07-1.86,4-5.11-.09-3.07-1.56-4.81-4.05-4.78"/>
                <path d="M586.76,265.56c-1.41,0-2.35-1.44-2.41-3.82s.78-4,2.22-4c2,0,2.37,2.38,2.41,3.82s-.19,3.94-2.22,4m-.21-8.19c-1.75,0-2.78,1.71-2.7,4.38S585,266,586.78,266s2.78-1.59,2.7-4.38-1.12-4.24-2.92-4.21m.15,9.24c-2.41,0-3.93-1.78-4.06-4.85s1.44-5,4-5,4,1.7,4.05,4.78c.09,3.26-1.32,5.07-4,5.11m-.09-10.28c-2.84,0-4.56,2.13-4.46,5.44S584,267,586.72,267c2.93,0,4.56-2.06,4.46-5.51s-1.75-5.2-4.56-5.16"/>
              </g>
            </g>
          </g>
        </g>
        <g style="opacity: 0.8">
          <g style="isolation: isolate">
            <g style="clip-path: url(#clip-path-5)">
              <g>
                <path d="M567.95,187.92a6.22,6.22,0,0,0-3.22.92l.34.58a5.08,5.08,0,0,1,2.55-.76c1.75,0,2.77.73,2.81,2.09,0,1.61-1.45,2.95-4.6,5.41l-1.23,1,0,.55,7.53-.12,0-.73-5.65.09v-.28l.08-.09,1-.75c2.44-1.94,4.16-3.44,4.11-5.26,0-1.24-1-2.68-3.68-2.64"/>
                <path d="M565.06,189.42l-.34-.58a6.22,6.22,0,0,1,3.22-.92c2.65,0,3.64,1.4,3.68,2.64.05,1.81-1.67,3.32-4.11,5.26l-1,.75-.08.09v.28l5.65-.09,0,.73-7.53.12,0-.55,1.23-1c3.14-2.47,4.62-3.81,4.6-5.41,0-1.36-1.06-2.12-2.81-2.09a5.08,5.08,0,0,0-2.55.76m2.87-1.89a6.65,6.65,0,0,0-3.69,1.11l-.14.1.78,1.3.25-.17a4.6,4.6,0,0,1,2.49-.84c1.86,0,2.28.92,2.3,1.71,0,1.39-1.3,2.65-4.46,5.13L564.08,197l0,1.1,8.53-.13,0-1.51-5.3.08.57-.44c2.53-2,4.31-3.57,4.25-5.54,0-1.54-1.36-3.07-4.19-3"/>
                <path d="M578.35,197c-1.75,0-2.85-1.55-2.93-4.21s1-4.35,2.7-4.38,2.85,1.46,2.93,4.2-.88,4.36-2.7,4.39m-.15-9.24c-2.55,0-4.07,2-4,5s1.64,4.88,4,4.85c2.66,0,4.07-1.86,4-5.11-.09-3.07-1.56-4.81-4-4.78"/>
                <path d="M578.34,196.61c-1.42,0-2.35-1.44-2.41-3.82s.78-4,2.21-4c2,0,2.37,2.38,2.41,3.82s-.19,4-2.21,4m-.22-8.19c-1.74,0-2.78,1.71-2.7,4.38s1.18,4.24,2.93,4.21,2.78-1.59,2.7-4.39-1.12-4.23-2.93-4.2m.15,9.23c-2.41,0-3.92-1.78-4-4.85s1.43-5,4-5,4,1.7,4,4.78c.09,3.25-1.31,5.06-4,5.11m-.08-10.27c-2.85,0-4.57,2.13-4.47,5.43s1.88,5.28,4.56,5.24c2.94,0,4.57-2.06,4.47-5.51s-1.76-5.2-4.56-5.16"/>
              </g>
            </g>
          </g>
        </g>
        <circle cx="518.63" cy="360.48" r="9.57" style="fill: none;stroke: #212934;stroke-miterlimit: 10;stroke-width: 3px"/>
        <circle cx="494.63" cy="360.48" r="9.57" style="fill: none;stroke: #212934;stroke-miterlimit: 10;stroke-width: 3px"/>
      </g>
    </g>
  </g>
</svg>
