<svg xmlns="http://www.w3.org/2000/svg" width="143.5" height="169.6" viewBox="0 0 143.5 169.6">
  <title>Recurso 1</title>
  <g id="Capa_2" data-name="Capa 2">
    <g id="Capa_1-2" data-name="Capa 1">
      <g style="opacity: 0.7000000000000001">
        <polyline points="82.7 126.9 82.2 126.7 81.8 126.5 81.4 126.4 80.9 126.3 80.5 126.3 80.1 126.3 79.8 126.4 79.4 126.5 79.1 126.7 78.8 126.9 78.6 127.2 78.4 127.5 78.2 127.9 78 128.3 77.9 128.7 77.9 129.2 77.9 129.7 77.9 130.2 77.9 130.8 78 131.3 78.2 131.9 78.4 132.5 78.6 133 78.8 133.6 79.1 134.2 79.4 134.7 79.8 135.2 80.1 135.7 80.5 136.2 80.9 136.7 81.4 137.1 81.8 137.4 82.2 137.8 82.7 138" style="fill: none;stroke: #000;stroke-miterlimit: 10;stroke-width: 2px"/>
        <line x1="82.7" y1="153.4" x2="82.7" y2="138" style="fill: none;stroke: #000;stroke-linecap: round;stroke-linejoin: round;stroke-width: 2px"/>
        <line x1="8.2" y1="110.4" x2="82.7" y2="153.4" style="fill: none;stroke: #000;stroke-linecap: round;stroke-linejoin: round;stroke-width: 2px"/>
        <line x1="8.2" y1="65.9" x2="8.2" y2="110.4" style="fill: none;stroke: #000;stroke-linecap: round;stroke-linejoin: round;stroke-width: 2px"/>
        <line x1="8.2" y1="65.9" x2="82.7" y2="108.9" style="fill: none;stroke: #000;stroke-linecap: round;stroke-linejoin: round;stroke-width: 2px"/>
        <line x1="82.7" y1="108.9" x2="82.7" y2="126.9" style="fill: none;stroke: #000;stroke-linecap: round;stroke-linejoin: round;stroke-width: 2px"/>
        <path d="M143,113.2l-.6.4m.6-13.1v12.7m0-12.7-.6.3M92.5,71.4,143,100.5m-.6.3v12.8m.6,26.1-.6.3m.6-14.2v13.9m-.6-14.3.6.4m0,0-.6.3m0,0V140M92.5,76.6l.2.1.5.4.5.4.3.4.3.3v.1m14.1,12.3h.2l.5-.1h1.3l.7.1h.7l.9.2.9.2.9.2.9.2,1,.3,1,.3,1,.3,1,.4,1,.4,1,.4.9.4.9.4.9.5.8.4.7.4.7.5.6.4.6.4.4.4.4.4.3.3M18.3.5,1.1,6.6m-.6.3.6-.3M92.5,91l1,.3,1,.4,1,.3.9.4,1,.5.9.4.8.4.8.4.8.5.7.4.6.4.5.4.5.4.4.4.2.4h.1M92.5,78.4h1.1l.4-.1.5-.1.3-.1.2-.2.1-.2.1-.3-.1-.3-.1-.3-.3-.3-.3-.4-.4-.4-.5-.4-.6-.4-.4-.3m33.3,19.3-.7-.5-.9-.4-.9-.4-.9-.5-1-.4-.9-.4-1-.3-1-.4-1-.3-1-.3-1-.3-.9-.2-.9-.2-.9-.1L112,89h-.7l-.7-.1H110l-.6.1-.4.1-.4.1-.2.1-.2.2-.1.3V90l.1.3.2.4.3.3.3.4.5.4.5.4.6.4.7.4.8.5.8.4.9.4.9.5.9.4,1,.4,1,.4,1,.3,1,.4,1,.3.9.3,1,.2.9.2.9.2.8.1.8.1.7.1h1.2l.5-.1.4-.1.3-.1.3-.2.1-.2.1-.3-.1-.3-.1-.3-.3-.3-.3-.4-.4-.4-.5-.4-.6-.4-.6-.4-.8-.4m-33.3,1h.1l1,.4,1,.3,1,.3,1,.3,1,.3.9.2.9.1.8.2.8.1h.7l.6.1.6-.1h.5l.4-.1.3-.2.2-.2.2-.2v-.5l-.2-.3-.2-.4-.3-.3-.5-.4-.5-.4-.5-.4-.7-.5-.7-.4m0,0-.8-.4-.8-.5-.9-.4-.9-.4-1-.4-1-.4-1-.4-1-.3-1-.3v-.1m0-17.5,50.2,29M92.8,98.6l-.3-.2m-17.2-65L18.3.5m-.6.4.6-.4M92.5,59.3V99.4M142.4,140,91.9,169.1m50.5-67.6V140m.3-39.3-.3.8m.3-.8L92.8,98.6m0,0-.3.8M17.7.9l57,32.8M.5,6.9,17.7.9M.5,6.9V116.4m0,0,91.4,52.7m0,0V59.7m-17.2-26,17.2,26m0,0,.6-.4m0,0L75.3,33.4m0,0-.6.3" style="fill: none;stroke: #000;stroke-linecap: round;stroke-linejoin: round"/>
      </g>
    </g>
  </g>
</svg>
