<svg xmlns="http://www.w3.org/2000/svg" width="288.65" height="198.51" viewBox="0 0 288.65 198.51">
  <title>Recurso 2</title>
  <g id="Capa_2" data-name="Capa 2">
    <g id="Capa_1-2" data-name="Capa 1">
      <g style="opacity: 0.7000000000000001">
        <path d="M51.45,171.75l91.4-52.8m0,0v-12.7m0,0L51.45,159m91.4-52.7-.3-.2m-91.7,52.6v12.7m.6.4-.6-.4m.6-12.4v12.8m0-12.8-.6-.3m91.4-27.5-18.2,10.5m18.8-10.2-.6-.3M118.05,151l6-9.3m0,0,.6.4m-50.2,34,43.6-25.1m0,0,.6.3M68.05,174l6.4,2.1m0,0,.6.4M50.85,184v13.9m.6.3-.6-.3m92-66.4-18.2,10.6m-6,9.2,6-9.2m-49.6,34.4,43.6-25.2m-50,23.1,6.4,2.1m-23.6,7.8v13.9m0,0,91.4-52.8m0,0v-13.9m-74.2,42.9-17.2,9.9M68.05,174l.6.4m-.6-.4-17.2,10m.6.3-.6-.3m33-121.7.3-.3.6-.6.6-.6.7-.4m0,0,.8-.4.8-.3.9-.3,1-.1.9-.1h1l1,.1,1,.2,1,.2,1,.4.9.4,1,.5.9.6.8.6.8.7.8.7.7.8.6.8.5.9.5.8.3.9.3.9.2.9.1.9v.9l-.1.9-.2.8-.3.8-.3.5m5.9,17.7.2-.3.6-.6.6-.5.8-.5m0,0,.7-.4.9-.3.9-.2.9-.2.9-.1h1l1,.1,1,.2,1,.3,1,.3,1,.4.9.5.9.6.9.6.8.7.7.7.7.8.6.9.5.8.5.9.4.9.2.9.2.9.1.9v.9l-.1.8-.2.8-.3.8-.2.6M91.75,6.45,74.55.35m17.2,6.1.6.3m-42.8,75.3.3-.3.6-.6.6-.6.7-.4m0,0,.8-.4.9-.4.9-.2.9-.2h1.9l1,.1,1,.2,1,.2,1,.4,1,.4.9.5.9.6.9.6.8.7.7.7.7.8.6.8.5.9.5.8.3.9.3.9.2.9.1.9v.9l-.1.9-.2.8-.3.8-.2.5m51.2,38,10.3,5.9m-38.5-22.2,2.1,1.2m-19.3-5.2.2-.3.6-.6.7-.5.7-.5m0,0,.8-.4.8-.3.9-.3.9-.1,1-.1h1l.9.1,1,.2,1,.3,1,.3,1,.4.9.5.9.6.9.6.8.7.8.7.6.8.6.8.6.9.4.9.4.9.3.9.1.9.1.9v.8l-.1.9-.2.8-.2.8-.3.6m-1.9-47.3V59.15m0,56.7v-2.1m-33.1,21.3-14.9,8.6m48-27.8-13.7,8m-62.7-22,.2-.3.6-.6.7-.6.7-.5m0,0,.8-.4.8-.3.9-.2.9-.2h1.9l1,.1,1,.2,1,.2,1,.4,1,.4.9.5.9.5.9.7.8.6.7.8.7.8.6.8.6.8.4.9.4.9.2.9.2.9.1.9v.9l-.1.8-.2.9-.3.8-.2.5m17,57.8v11.8m90.8-64.2v11.8m-.6-11.5v11.8m-101.4.2.3-.3.5-.6.7-.5.7-.5m0,0,.8-.4.8-.3.9-.3.9-.1,1-.1h1l1,.1,1,.2,1,.3,1,.3.9.4,1,.5.9.6.8.6.8.7.8.7.7.8.6.8.5.9.4.9.4.8.3,1,.2.9.1.9-.1.8-.1.9-.1.8-.3.8-.3.6M74.55.35l-56.9,32.9M74.55.35l.6.4m-57.5,32.5L.35,59.15m17.9-25.5-.6-.4m.6.4L75.15.75M1,59.55l17.3-25.9m74.1-26.9v39.8M75.15.75l17.2,6m33.4,99.4.7-.5.6-.5.6-.6.5-.7.4-.7.3-.8.3-.8.1-.8.1-.9-.1-.9-.1-.9-.2-.9-.3-.9-.5-.9-.4-.8-.6-.9-.7-.8-.7-.7-.7-.7-.9-.7-.9-.6-.9-.5-.9-.5-1-.3-1-.4-1-.2-1-.1-1-.1-1,.1-.9.1-.9.2-.9.2-.8.4-.7.4-.7.5-.6.6-.6.7-.4.6-.4.8-.3.8-.2.8-.1.9V96l.1.9.2.9.3.9.3.9.5.9.5.9.6.8.7.8.7.7.8.7.9.6.9.6.9.5,1,.4,1,.3,1,.3,1,.2,1,.1h1l.9-.1,1-.1.8-.3.9-.3.8-.4m-25-29.8.7-.5.7-.5.6-.6.5-.7.4-.7.3-.8.2-.8.2-.8v-1.8l-.1-.9-.3-.9-.3-.9-.4-.9-.5-.9-.5-.8-.7-.8-.7-.8-.8-.7-.8-.6-.9-.6-.9-.5-1-.5-1-.4-.9-.3-1-.2-1-.2h-2l-.9.1-1,.2-.8.3-.8.4-.8.4-.7.5-.6.6-.5.6-.5.7-.3.8-.3.7-.2.9-.1.8v.9l.1.9.2.9.2.9.4.9.4.9.6.8.6.9.7.7.7.8.8.7.9.6.9.5.9.5,1,.5,1,.3,1,.3,1,.1,1,.1.9.1,1-.1.9-.2.9-.2.8-.3.8-.4m-34.3,19.8.8-.5.6-.5.6-.7.5-.6.4-.7.3-.8.3-.8.1-.9.1-.8-.1-.9-.1-.9-.2-.9-.4-.9-.4-.9-.5-.9-.5-.8-.7-.8-.7-.8-.8-.7-.8-.6-.9-.6-.9-.6-.9-.4-1-.4-1-.3-1-.2-1-.2h-2l-.9.1-.9.2-.9.3-.8.3-.8.5-.6.5-.7.6-.5.6-.4.7-.4.7-.3.8-.2.9-.1.8V86l.1.9.2.9.2.9.4.9.5.9.5.8.6.8.7.8.7.8.8.6.9.7.9.5.9.5,1,.4,1,.4,1,.3,1,.1,1,.1h1.9l.9-.2.9-.2.9-.3.7-.4m25,29.8.7-.5.7-.5.5-.6.5-.7.4-.7.4-.8.2-.8.2-.8v-1.8l-.2-.9-.2-.9-.3-.9-.4-.9-.5-.8-.6-.9-.6-.8-.7-.7-.8-.7-.9-.7-.8-.6-1-.5-.9-.5-1-.4-1-.3-1-.2-1-.1-1-.1h-.9l-1,.2-.9.2-.9.2-.8.4-.7.4-.7.5-.6.6-.6.6-.4.7-.4.8-.3.8-.2.8-.1.9v.8l.1.9.2.9.3.9.4.9.4.9.5.9.6.8.7.8.8.7.8.7.8.6.9.6,1,.5.9.4,1,.3,1,.3,1,.2,1,.1h1l1-.1.9-.1.9-.3.8-.3.8-.4m-34.3,19.8.7-.5.7-.5.6-.6.5-.7.4-.7.3-.8.2-.8.2-.8v-1.8l-.1-.9-.3-.9-.3-.9-.4-.9-.5-.8-.6-.9-.6-.8-.7-.7-.8-.8-.8-.6-.9-.6-.9-.5-1-.5-1-.4-1-.3-1-.2-1-.1-.9-.1H47l-1,.1-.9.2-.8.3-.8.4-.8.4-.7.5-.6.6-.5.6-.5.7-.4.8-.2.8-.2.8-.1.8v.9l.1.9.1.9.3.9.4.9.4.9.6.8.6.9.6.7.8.8.8.7.9.6.9.6.9.5,1,.4.9.3,1,.3,1,.2,1,.1h1l1-.1.9-.2.9-.2.8-.3.8-.4M32.25,116l.7-.5.6-.6.6-.6.5-.6.4-.8.4-.7.2-.8.1-.9.1-.8-.1-.9-.1-.9-.2-.9-.3-.9-.4-.9-.5-.9-.6-.8-.6-.8-.8-.8-.7-.7-.9-.7-.8-.5-1-.6L28,99l-1-.4-1-.3-1-.2-1-.2H22l-.9.1-.9.2-.9.3-.8.3-.7.5-.7.5-.6.6-.6.6-.4.7-.4.7-.3.8-.2.8-.1.9v.9l.1.9.2.9.3.9.3.9.5.9.5.8.6.8.7.8.8.7.8.7.8.7.9.5,1,.5.9.4,1,.4,1,.2,1,.2,1,.1h1.9l1-.2.9-.2.8-.4.8-.3m110.3-9.9-91.4,52.8m41.5-112.5,49.9,59.7M1.25,99.15l91.4-52.8M1,59.55v40m-.6-40.4.6.4m-.6,109.1V59.15m50.5,138.7L.35,168.65m50.5-9.4v38.6m.3-39-.3.4m.3-.4L1.25,99.15m0,0-.3.4" style="fill: none;stroke: #000;stroke-linecap: round;stroke-linejoin: round;stroke-width: 0.7089999914169312px"/>
        <g>
          <path d="M112.69,54.12c1.51-.56,3.42-1.21,5.69-1.9" style="fill: none;stroke: #000;stroke-linecap: round;stroke-linejoin: round;stroke-width: 2px"/>
          <path d="M130.24,49.3c28.12-5.45,79.09-5.3,124.81,48" style="fill: none;stroke: #000;stroke-linecap: round;stroke-linejoin: round;stroke-width: 2px;stroke-dasharray: 12.2217378616333,12.2217378616333"/>
          <path d="M259,102.06q1.85,2.3,3.69,4.73" style="fill: none;stroke: #000;stroke-linecap: round;stroke-linejoin: round;stroke-width: 2px"/>
          <polygon points="110.67 45.29 108.65 55.75 117.24 62.07 117.3 62.05 110.72 45.27 110.67 45.29"/>
        </g>
        <g>
          <path d="M63.72,126c1.17-1.1,2.68-2.45,4.51-4" style="fill: none;stroke: #000;stroke-linecap: round;stroke-linejoin: round;stroke-width: 2px"/>
          <path d="M77.81,115c25-16.24,76.91-35.72,151.79,6.78" style="fill: none;stroke: #000;stroke-linecap: round;stroke-linejoin: round;stroke-width: 2px;stroke-dasharray: 11.862464904785156,11.862464904785156"/>
          <path d="M234.74,124.79q2.54,1.52,5.12,3.13" style="fill: none;stroke: #000;stroke-linecap: round;stroke-linejoin: round;stroke-width: 2px"/>
          <polygon points="58.39 118.64 60.65 129.05 71.03 131.49 71.08 131.44 58.43 118.6 58.39 118.64"/>
        </g>
        <text transform="translate(132.65 31.45)" style="font-size: 22px;font-family: Effra-Bold, Effra;font-weight: 700">2 <tspan x="15.97" y="0" style="letter-spacing: -0.030007102272727272em">A</tspan><tspan x="30.16" y="0">CIE</tspan><tspan x="64.08" y="0" style="letter-spacing: -0.019975142045454544em">R</tspan><tspan x="77" y="0" style="letter-spacing: -0.043013139204545456em">T</tspan><tspan x="89.8" y="0" style="letter-spacing: -0.007990056818181818em">O</tspan><tspan x="106.61" y="0" style="letter-spacing: -0.000022194602272727273em">S</tspan></text>
        <circle cx="275.75" cy="132.15" r="12.91" style="fill: #184b80"/>
      </g>
    </g>
  </g>
</svg>
