<svg xmlns="http://www.w3.org/2000/svg" xmlns:xlink="http://www.w3.org/1999/xlink" width="279.39" height="36.47" viewBox="0 0 279.39 36.47">
  <defs>
    <clipPath id="clip-path" transform="translate(-2.03 -2.95)">
      <rect width="283.2" height="44.08" style="fill: none"/>
    </clipPath>
  </defs>
  <title>Recurso 2</title>
  <g id="Capa_2" data-name="Capa 2">
    <g id="Capa_1-2" data-name="Capa 1">
      <g style="clip-path: url(#clip-path)">
        <path d="M59.57,22.26l.26,3.28c1,1.72,3.92,2.87,5.85,2.87,3.17,0,5.86-1.68,5.86-4.92,0-1.6-1-2.84-3.1-3.47l-5.22-1.56c-3.13-.93-5.44-3.13-5.44-6.34,0-6,4.44-8.24,9.84-8.24a19.21,19.21,0,0,1,6.94,1.27l.19.45a21.07,21.07,0,0,0-.52,5.3H72.69l-.22-3.06a7.05,7.05,0,0,0-5-2.05c-3.47,0-5.11,2-5.11,4.51,0,1.68,1.19,2.91,4,3.62L70.61,15c3.43.89,5.63,3.06,5.63,6.41,0,6.34-5.26,9-10.93,9a18,18,0,0,1-7.79-1.71,31.89,31.89,0,0,0,.56-6.45Z" transform="translate(-2.03 -2.95)"/>
        <path d="M78.18,17.9c0-2.13-.07-2.54-1-2.61l-1.68-.11V13.84a24.43,24.43,0,0,0,7-1.6l.22.22v2.8l3-2.31a4.41,4.41,0,0,1,2.83-.71c2.16,0,4,.93,4.74,3l3-2.31a4.41,4.41,0,0,1,2.83-.71c4,0,5.18,2,5.18,6.9v6.94a6.37,6.37,0,0,0,.15,1.75c.11.37.41.56,1.19.63l1.23.08v1.38c-1.34,0-2.46-.11-3.66-.11s-2.31.07-3.47.11V19.76c0-1.83-.3-2.8-1-3.47a3.17,3.17,0,0,0-2.35-.86A3.05,3.05,0,0,0,93.51,18v8.09a6.38,6.38,0,0,0,.15,1.75c.11.37.41.56,1.19.63l1.31.08v1.38c-1.6,0-3.17-.11-5-.11-1.64,0-3.21.07-4.66.11V28.53l1.15-.08c.78,0,1.08-.26,1.19-.63A6.37,6.37,0,0,0,89,26.07v-6.3c0-1.83-.3-2.8-1-3.47a3.17,3.17,0,0,0-2.35-.86A3.05,3.05,0,0,0,82.73,18v8.09a6.36,6.36,0,0,0,.15,1.75c.11.37.41.56,1.19.63l1,.08v1.38c-1.31,0-2.87-.11-4.74-.11-1.64,0-3.21.07-4.81.11V28.53l1.3-.08c.78-.08,1.08-.26,1.19-.63a6.37,6.37,0,0,0,.15-1.75Z" transform="translate(-2.03 -2.95)"/>
        <path d="M108,17.9c0-2.13-.08-2.54-1-2.61l-1.68-.11V13.84a23.27,23.27,0,0,0,4.21-.78l2.61-.82.37.22v9.73c0,2.42.15,4.89,3,4.89a3.86,3.86,0,0,0,3.13-1.9,2.79,2.79,0,0,0,.34-1.45V17.9c0-2.13-.08-2.54-1-2.61l-1.68-.11V13.84a23.31,23.31,0,0,0,4.21-.78l2.61-.82.37.22V26.07a6.37,6.37,0,0,0,.15,1.75c.11.37.41.56,1.19.63l1.23.08v1.38c-1.53,0-3.09-.11-4.14-.11-.63,0-1.68.07-3.17.11l.19-3.09-2.83,2.76a3.58,3.58,0,0,1-2.39.86c-4.1,0-5.82-2.31-5.82-5.85Z" transform="translate(-2.03 -2.95)"/>
        <path d="M129.91,17.9c0-2.13-.07-2.54-1-2.61l-1.68-.11V13.84a23.3,23.3,0,0,0,4.21-.78l2.61-.82.37.22V16l1.64-1.79c1.08-1.16,1.9-2,2.95-2a4,4,0,0,1,1.6.22l-.19,4.81-.9.37a2.33,2.33,0,0,0-2.2-1.34c-1.45,0-2.91,1.34-2.91,2.39v7.38a6.45,6.45,0,0,0,.15,1.75c.11.37.86.6,1.64.63l1.46.08v1.38c-2.2,0-3.77-.11-5.63-.11-1.64,0-3.21.07-4.81.11V28.53l1.3-.08c.78-.08,1.08-.26,1.2-.63a6.45,6.45,0,0,0,.15-1.75Z" transform="translate(-2.03 -2.95)"/>
        <path d="M154.64,6.79,154,7a4.82,4.82,0,0,0-2.35-.89c-2.31,0-2.35,1.49-2.35,3.43v4c1.68,0,3.39-.07,4.89-.15l.15.3L154,15.92h-4.62V26.07a6.35,6.35,0,0,0,.15,1.75c.11.37.93.6,1.72.63l1.68.07v1.38c-2.5,0-4.07-.11-5.93-.11-1.64,0-3.21.08-5.26.11V28.53l1.53-.07c.78,0,1.3-.26,1.42-.63a6.29,6.29,0,0,0,.15-1.75V15.92l-2.95.19v-.89a18.78,18.78,0,0,0,2.95-1.68v-1.6c0-2.95.19-3.54,2.05-5.11l2.76-2.31c1.75-1.45,2.54-1.56,3.5-1.56a5.47,5.47,0,0,1,1.53.22Z" transform="translate(-2.03 -2.95)"/>
        <path d="M158,17.9c0-2.13-.07-2.54-1-2.61l-1.68-.11V13.84a23.29,23.29,0,0,0,4.21-.78l2.61-.82.37.22V26.07a6.36,6.36,0,0,0,.15,1.75c.11.37.41.56,1.19.63l1.3.08v1.38c-1.6,0-3.17-.11-5-.11-1.64,0-3.21.08-4.81.11V28.53l1.31-.08c.78-.07,1.08-.26,1.19-.63a6.36,6.36,0,0,0,.15-1.75Zm4.92-11.6a2.8,2.8,0,0,1-5.59,0,2.8,2.8,0,1,1,5.59,0" transform="translate(-2.03 -2.95)"/>
        <path d="M166.22,16l-2.39.15v-.82l2.46-1.6V11.52c0-1.16-.07-2.28-.15-3.43,1.64-.6,3.43-1.34,4.55-1.86l.52.37a27.29,27.29,0,0,0-.45,5.07v2.16l4.25-.23-.3,2.43h-4v8.87c0,1.9.63,2.43,2.31,2.43a3.32,3.32,0,0,0,1.71-.49l.3.71-1.83,2.2a3.12,3.12,0,0,1-2.28.67c-3.39,0-4.77-1.38-4.77-4.74Z" transform="translate(-2.03 -2.95)"/>
        <path d="M184.83,9.55a8.94,8.94,0,0,0-.26-3c-.15-.3-.56-.45-1.53-.52l-1.38-.11V4.4c1.53,0,3.58.11,5.82.11s4.25-.07,5.78-.11V5.89L191.88,6c-1,.08-1.38.22-1.53.52a9,9,0,0,0-.26,3v6.9c0,.15.15.23.34.23l7-6.86c.9-.89,2.05-2.2,2.91-3.13a2,2,0,0,0,.6-1.34V4.4c1.12,0,2.27.11,3.39.11s2.27-.07,3.39-.11V5.86c-1.57.15-3,.22-4.1,1.27l-8.28,7.72,9.92,11.67a4.34,4.34,0,0,0,3.4,1.86v1.53c-1.27,0-2.5-.11-3.77-.11s-2.53.08-3.8.11l-7.76-9.28a14.46,14.46,0,0,0-2.84-2.95.34.34,0,0,0-.41.34v6.75a9,9,0,0,0,.26,3c.15.3.56.45,1.53.52l1.38.11v1.49c-1.53,0-3.58-.11-5.78-.11s-4.29.08-5.82.11V28.42l1.38-.11c1-.08,1.38-.22,1.53-.52a9,9,0,0,0,.26-3Z" transform="translate(-2.03 -2.95)"/>
        <path d="M218.84,19.54c0-2.61-1.08-4.4-3.88-4.4-.63,0-1.94.19-2.09.52l-.82,1.86-1.12-.26V14.69l2-1.19a8.36,8.36,0,0,1,4.32-1.27c3.28,0,6.27,1.45,6.15,5.44,0,1.53-.11,3.06-.11,4.59s.08,3.1.11,4.62c0,.93.26,1.45,1,1.53l1.12.11v1.38c-1.19,0-2.2-.11-3.28-.11s-2.09.07-3.39.11l-.19-.3.19-2.31L215.37,30a3.28,3.28,0,0,1-2.05.45c-2.76,0-4.14-1.9-4.14-4.55a4.68,4.68,0,0,1,1.72-4,13,13,0,0,1,4.66-1.72Zm0,1.56-1.68.45c-2,.56-3.43,1-3.43,3.39a2,2,0,0,0,2,2.24,4.55,4.55,0,0,0,3.09-1.68Z" transform="translate(-2.03 -2.95)"/>
        <path d="M227,17.9c0-2.13-.08-2.54-1-2.61l-1.68-.11V13.84a23.3,23.3,0,0,0,4.21-.78l2.61-.82.37.22v3.06l2.27-1.83a5.56,5.56,0,0,1,3.88-1.45,6.63,6.63,0,0,1,6.71,6.94,12,12,0,0,1-.86,4.29,8.75,8.75,0,0,1-2.72,3.66c-.89.67-1.86,1.49-2.91,2.16a5.81,5.81,0,0,1-3.06,1.16,11.83,11.83,0,0,1-3.32-.63v5.78a6.37,6.37,0,0,0,.15,1.75c.11.37.41.6,1.19.63l1.68.08v1.38c-2,0-3.54-.11-5.41-.11-1.64,0-3.21.08-4.81.11V38l1.3-.08c.78-.08,1.08-.26,1.19-.63a6.34,6.34,0,0,0,.15-1.75Zm4.55,7.94a4.47,4.47,0,0,0,3.8,2.05c3.47,0,4.36-3.73,4.36-6.53,0-3-1.31-5.78-4.66-5.78a4.18,4.18,0,0,0-3.5,1.86Z" transform="translate(-2.03 -2.95)"/>
        <path d="M247.15,17.9c0-2.13-.08-2.54-1-2.61l-1.68-.11V13.84a23.3,23.3,0,0,0,4.21-.78l2.61-.82.37.22v3.06L254,13.69a5.57,5.57,0,0,1,3.88-1.45,6.62,6.62,0,0,1,6.71,6.94,12,12,0,0,1-.86,4.29A8.77,8.77,0,0,1,261,27.11c-.9.67-1.87,1.49-2.91,2.16A5.81,5.81,0,0,1,255,30.43a11.84,11.84,0,0,1-3.32-.63v5.78a6.37,6.37,0,0,0,.15,1.75c.11.37.41.6,1.19.63l1.68.08v1.38c-2,0-3.54-.11-5.41-.11-1.64,0-3.21.08-4.81.11V38L245.8,38c.78-.08,1.08-.26,1.19-.63a6.34,6.34,0,0,0,.15-1.75Zm4.55,7.94a4.47,4.47,0,0,0,3.8,2.05c3.47,0,4.36-3.73,4.36-6.53,0-3-1.3-5.78-4.66-5.78a4.18,4.18,0,0,0-3.5,1.86Z" transform="translate(-2.03 -2.95)"/>
        <path d="M274.74,19.54c0-2.61-1.08-4.4-3.88-4.4-.63,0-1.94.19-2.09.52L268,17.53l-1.12-.26V14.69l2-1.19a8.37,8.37,0,0,1,4.33-1.27c3.28,0,6.26,1.45,6.15,5.44,0,1.53-.11,3.06-.11,4.59s.08,3.1.11,4.62c0,.93.26,1.45,1,1.53l1.12.11v1.38c-1.2,0-2.2-.11-3.28-.11s-2.09.07-3.39.11l-.19-.3.19-2.31L271.28,30a3.27,3.27,0,0,1-2.05.45c-2.76,0-4.14-1.9-4.14-4.55a4.68,4.68,0,0,1,1.72-4,13,13,0,0,1,4.66-1.72Zm0,1.56-1.68.45c-2,.56-3.43,1-3.43,3.39a2,2,0,0,0,2,2.24,4.55,4.55,0,0,0,3.1-1.68Z" transform="translate(-2.03 -2.95)"/>
        <path d="M52.45,15c-.13-3.62-1.14-11-7-11H9.13c-5.9.06-6.9,7.42-7,11,0,.6-.07,1.37-.07,2.21s0,1.86.09,2.49c.23,3.8,1.48,10.21,7.21,10.24H45.22c5.74,0,7-6.44,7.21-10.24.05-.63.09-1.51.09-2.49s0-1.61-.07-2.21m-5.67,4.46c-.25,3.47-1.62,9.34-7.9,9.37H15.66c-6.28,0-7.65-5.92-7.9-9.39-.06-.58-.1-1.38-.1-2.28s0-1.48.07-2C7.88,11.79,9,5.05,15.44,5H39.1c6.46.05,7.56,6.79,7.7,10.11,0,.55.07,1.25.07,2s0,1.7-.1,2.28" transform="translate(-2.03 -2.95)" style="fill: #2f9cd7"/>
        <polygon points="30.45 20.3 40.62 22.71 40.62 22.71 40.62 20.3 30.44 20.3 30.45 20.3" style="fill: #2f9cd7"/>
        <path d="M42.66,7.9a.09.09,0,0,0-.09-.09h0L12,11h0a.09.09,0,0,0-.08.09.09.09,0,0,0,.05.08h0L25.68,14c1.25.2,2.17,1,2.12,1.84,0,.66-.63,1.19-1.47,1.43l-.11,0-.07,0-.36.06L12,19.77a.09.09,0,0,0-.09.09A.09.09,0,0,0,12,20h0l30.55-3.17h0a.09.09,0,0,0,.07-.09.09.09,0,0,0-.08-.09L29.1,13.84a5.65,5.65,0,0,1-1.58-.56A1.54,1.54,0,0,1,26.76,12c0-.79.89-1.4,2-1.54L42.58,8h0a.09.09,0,0,0,.08-.09" transform="translate(-2.03 -2.95)" style="fill: #2f9cd7"/>
        <path d="M42.58,26.12h0L28.83,22.89h0c-.85-.22-1.45-.79-1.41-1.41s.68-1.1,1.53-1.23l13.65-2.73h0a.09.09,0,0,0,.07-.09.09.09,0,0,0-.09-.09h0L12,20.65h0a.09.09,0,0,0-.08.09.08.08,0,0,0,0,.08L42.56,26.3h0a.09.09,0,0,0,.09-.09.09.09,0,0,0-.07-.09M12,20.66h0Z" transform="translate(-2.03 -2.95)" style="fill: #2f9cd7"/>
      </g>
    </g>
  </g>
</svg>
