<svg xmlns="http://www.w3.org/2000/svg" xmlns:xlink="http://www.w3.org/1999/xlink" width="609" height="367.5" viewBox="0 0 609 367.5">
  <defs>
    <filter id="luminosity-invert-noclip" x="0" y="0" width="609" height="367.5" filterUnits="userSpaceOnUse" color-interpolation-filters="sRGB">
      <feColorMatrix values="-1 0 0 0 1 0 -1 0 0 1 0 0 -1 0 1 0 0 0 1 0" result="invert"/>
      <feFlood flood-color="#fff" result="bg"/>
      <feBlend in="invert" in2="bg"/>
    </filter>
    <mask id="mask" x="0" y="0" width="609" height="367.5" maskUnits="userSpaceOnUse">
      <g style="filter: url(#luminosity-invert-noclip)">
        <ellipse cx="426.69" cy="120.77" rx="59.79" ry="60.5" style="fill: #fff"/>
        <path d="M228,246.82c2.69,15.45,13.48,47.47,56.76,56.27a73.4,73.4,0,0,0,24.6.69c51.67-7.11,66.9-33.37,72-49.3,1.66-5.2-1.55-10.91-6.88-11.78-15.85-2.58-37.75,13.77-72,13.74-35,0-49.09-19.1-66-19.68A8.48,8.48,0,0,0,228,246.82Z" style="fill: #fff"/>
        <ellipse cx="182.99" cy="120.54" rx="59.79" ry="60.5" style="fill: #fff"/>
      </g>
    </mask>
  </defs>
  <title>Recurso 14</title>
  <g id="Capa_2" data-name="Capa 2">
    <g id="Capa_2-2" data-name="Capa 2">
      <g style="mask: url(#mask)">
        <rect width="609" height="367.5" rx="29.03" ry="29.03" style="fill: #184b80"/>
      </g>
    </g>
  </g>
</svg>
