<svg xmlns="http://www.w3.org/2000/svg" xmlns:xlink="http://www.w3.org/1999/xlink" width="70.78" height="70.78" viewBox="0 0 70.78 70.78">
  <defs>
    <filter id="luminosity-invert-noclip" x="0" y="0" width="70.78" height="70.78" filterUnits="userSpaceOnUse" color-interpolation-filters="sRGB">
      <feColorMatrix values="-1 0 0 0 1 0 -1 0 0 1 0 0 -1 0 1 0 0 0 1 0" result="invert"/>
      <feFlood flood-color="#fff" result="bg"/>
      <feBlend in="invert" in2="bg"/>
    </filter>
    <mask id="mask" x="0" y="0" width="70.78" height="70.78" maskUnits="userSpaceOnUse">
      <g style="filter: url(#luminosity-invert-noclip)">
        <path d="M35.38,21.44H55.11c.53,0,1.16-.11,1.41.52s-.18,1.12-.57,1.56a3.4,3.4,0,0,1-1,.7L37.84,33.64a4.82,4.82,0,0,1-4.9,0L15.8,24.23a3.18,3.18,0,0,1-1.48-1.45c-.33-.74,0-1.25.78-1.33a7,7,0,0,1,.7,0Z" style="fill: #fcfcfc;fill-rule: evenodd"/>
        <path d="M35.39,49.48H16.87a2.62,2.62,0,0,1-2.76-2.78q0-8.38,0-16.76c0-1.42.1-1.49,1.34-.83q8.68,4.64,17.37,9.29a5.07,5.07,0,0,0,5.15,0q8.64-4.65,17.3-9.26c.19-.1.37-.21.56-.29.61-.27.84-.14.84.5q0,8.87,0,17.75a2.64,2.64,0,0,1-2.6,2.37Z" style="fill: #fcfcfc;fill-rule: evenodd"/>
      </g>
    </mask>
  </defs>
  <title>Recurso 5</title>
  <g id="Capa_2" data-name="Capa 2">
    <g id="Capa_1-2" data-name="Capa 1">
      <g style="mask: url(#mask)">
        <circle cx="35.39" cy="35.39" r="35.39" style="fill: #2f9cd7"/>
      </g>
    </g>
  </g>
</svg>
