<svg xmlns="http://www.w3.org/2000/svg" width="62" height="62" viewBox="0 0 62 62">
  <title>Recurso 4</title>
  <g id="Capa_2" data-name="Capa 2">
    <g id="Capa_1-2" data-name="Capa 1">
      <path d="M34.39,62H27.73c-.16-.23-.41-.22-.65-.25a26.17,26.17,0,0,1-5.6-1.26Q3.47,54,.27,35.1c0-.25,0-.53-.27-.71V27.61c.38-.36.29-.86.36-1.3A30.63,30.63,0,0,1,10.8,7.51,30.4,30.4,0,0,1,26.9.27c.25,0,.54,0,.71-.27h6.66c.18.25.46.22.71.26A27.52,27.52,0,0,1,41.89,2q17,7,19.85,25.1c0,.24,0,.49.26.65v6.66c-.38.34-.28.82-.35,1.24A30.63,30.63,0,0,1,50.41,55.14a30.2,30.2,0,0,1-15.19,6.57C34.93,61.75,34.59,61.7,34.39,62Zm3.27-11.06c0,1.55,0,2.82,0,4.09,0,1.49.86,2.08,2.27,1.58a26.12,26.12,0,0,0,9.77-6A26.63,26.63,0,0,0,58,28.94a25.8,25.8,0,0,0-7.86-17.17,26.4,26.4,0,0,0-22.8-7.66A27.07,27.07,0,0,0,4,33.68,26.72,26.72,0,0,0,17.57,54.56a22.87,22.87,0,0,0,4.63,2.09c1.16.38,2.1-.19,2.13-1.31,0-1.33,0-2.66,0-4,0-.44-.21-.55-.62-.49A16.43,16.43,0,0,1,22,51c-3.2.13-5.94-1.25-7-4.23a7.12,7.12,0,0,0-3-3.7,2.38,2.38,0,0,1-.72-.64c-.24-.34-.17-.61.23-.76a2.18,2.18,0,0,1,1.13-.1,5.26,5.26,0,0,1,3.81,2.72c1.64,2.81,4.31,3.5,7.31,2.5a1,1,0,0,0,.8-.87,6,6,0,0,1,1.08-2.48c.4-.54.37-.62-.32-.71a20.16,20.16,0,0,1-4.23-1,10.29,10.29,0,0,1-6.8-7.38,18.39,18.39,0,0,1-.52-3.16A11.18,11.18,0,0,1,16,22.74a1.07,1.07,0,0,0,.19-1.07,9.41,9.41,0,0,1,0-4.67c.47-2.06.75-2.22,2.82-1.64a17.11,17.11,0,0,1,4.57,2.18,1.32,1.32,0,0,0,1.13.23,24.34,24.34,0,0,1,12.51,0,1.49,1.49,0,0,0,1.26-.2,18.94,18.94,0,0,1,3.15-1.68,8.5,8.5,0,0,1,2.86-.72.89.89,0,0,1,1,.71,10.27,10.27,0,0,1,.26,5.84A1.19,1.19,0,0,0,46,22.84a10.05,10.05,0,0,1,2.2,5.23A17.18,17.18,0,0,1,48,33.19,10.55,10.55,0,0,1,40.2,42a23.48,23.48,0,0,1-3.54.77c-.61.09-.64.16-.27.65a6.16,6.16,0,0,1,1.15,2.83A40.35,40.35,0,0,1,37.66,50.94Z" style="fill: #2f9cd7"/>
    </g>
  </g>
</svg>
