<?xml version="1.0" encoding="utf-8"?>
<!-- Generator: Adobe Illustrator 21.1.0, SVG Export Plug-In . SVG Version: 6.00 Build 0)  -->
<svg version="1.1" width="100%" height="100%" shape-rendering="geometricPrecision" xmlns="http://www.w3.org/2000/svg" xmlns:xlink="http://www.w3.org/1999/xlink" x="0px" y="0px"
	 viewBox="0 0 609 465" style="enable-background:new 0 0 609 465;" xml:space="preserve">
<g id="Capa_1">
</g>
<g id="Capa_2">
	<g>
		<g>
			<ellipse style="fill:#184B80;" cx="183.486" cy="121.04" rx="59.79" ry="60.499"/>
			<path style="fill:#01A1DD;" d="M228.489,247.316c2.691,15.454,13.483,47.471,56.757,56.267
				c8.085,1.643,16.427,1.816,24.598,0.692c51.673-7.114,66.897-33.366,71.969-49.303c1.655-5.201-1.553-10.909-6.884-11.777
				c-15.854-2.58-37.749,13.769-71.999,13.742c-34.961-0.027-49.09-19.097-66.027-19.683
				C231.602,237.07,227.568,242.03,228.489,247.316z"/>
			<ellipse style="fill:#184B80;" cx="427.185" cy="121.273" rx="59.79" ry="60.499"/>
			<path style="fill:#184B80;" d="M579.368,465H29.632C13.267,465,0,451.733,0,435.368v-61.735C0,357.267,13.267,344,29.632,344
				h549.735C595.733,344,609,357.267,609,373.632v61.735C609,451.733,595.733,465,579.368,465z"/>
			<g>
				<path style="fill:#FFFFFF;" d="M96.527,402.378l-22.5-0.018l-0.012,15.234l26.406,0.021l-0.008,9.414L62.289,427l0.045-56.875
					l38.047,0.029l-0.008,9.492l-26.328-0.021l-0.01,13.555l22.5,0.018L96.527,402.378z"/>
				<path style="opacity:0.9;fill:#FFFFFF;" d="M123.932,423.884c3.256,0.002,5.984-0.913,8.186-2.748
					c2.203-1.834,3.396-4.209,3.58-7.126l4.492,0.004c-0.133,2.578-0.941,4.928-2.428,7.049c-1.484,2.122-3.459,3.78-5.922,4.976
					c-2.461,1.195-5.098,1.793-7.91,1.791c-5.547-0.005-9.939-1.935-13.18-5.792c-3.238-3.855-4.855-9.04-4.852-15.551l0.002-1.406
					c0.004-4.166,0.734-7.851,2.195-11.053s3.553-5.674,6.275-7.417c2.723-1.742,5.906-2.612,9.553-2.609
					c4.635,0.004,8.457,1.388,11.463,4.149c3.006,2.763,4.609,6.397,4.814,10.902l-4.492-0.004
					c-0.205-3.307-1.395-5.978-3.568-8.011c-2.172-2.032-4.912-3.051-8.219-3.053c-4.219-0.004-7.496,1.518-9.828,4.563
					c-2.334,3.045-3.502,7.315-3.506,12.81l-0.002,1.367c-0.004,5.391,1.158,9.598,3.486,12.62
					C116.4,422.368,119.688,423.88,123.932,423.884z"/>
				<path style="opacity:0.9;fill:#FFFFFF;" d="M146.955,405.308c0.002-4.063,0.793-7.72,2.371-10.975
					c1.578-3.254,3.807-5.784,6.686-7.593c2.879-1.807,6.141-2.71,9.787-2.707c5.625,0.005,10.18,1.98,13.668,5.929
					c3.486,3.948,5.227,9.178,5.223,15.688l-0.002,0.977c-0.002,4.089-0.793,7.768-2.371,11.033
					c-1.578,3.268-3.801,5.785-6.666,7.554c-2.867,1.77-6.135,2.651-9.807,2.648c-5.6-0.004-10.148-1.98-13.648-5.929
					c-3.5-3.947-5.246-9.177-5.242-15.688L146.955,405.308z M151.641,406.601c-0.004,5.053,1.303,9.2,3.916,12.444
					c2.615,3.244,6.045,4.868,10.289,4.871c4.219,0.004,7.639-1.615,10.258-4.854c2.621-3.24,3.932-7.517,3.936-12.829l0.002-0.898
					c0.002-3.229-0.596-6.186-1.791-8.869c-1.195-2.683-2.873-4.761-5.033-6.234c-2.162-1.473-4.635-2.21-7.42-2.213
					c-4.168-0.003-7.566,1.629-10.199,4.895c-2.635,3.267-3.951,7.543-3.955,12.829L151.641,406.601z"/>
				<path style="fill:#FFFFFF;" d="M205.766,427.111l-11.719-0.009l0.045-56.875l11.719,0.009L205.766,427.111z"/>
				<path style="opacity:0.9;fill:#FFFFFF;" d="M222.127,384.858l0.15,7.227c1.59-2.602,3.57-4.587,5.941-5.952
					s4.988-2.047,7.854-2.045c4.531,0.004,7.902,1.283,10.115,3.836c2.211,2.555,3.328,6.384,3.35,11.487l-0.021,27.734
					l-4.648-0.004l0.021-27.773c-0.023-3.775-0.822-6.588-2.395-8.438c-1.576-1.851-4.094-2.777-7.557-2.779
					c-2.891-0.003-5.451,0.9-7.678,2.708c-2.229,1.81-3.879,4.249-4.947,7.32l-0.023,28.945l-4.648-0.003l0.033-42.266
					L222.127,384.858z"/>
				<path style="opacity:0.9;fill:#FFFFFF;" d="M268.893,374.075l-0.008,10.82l8.75,0.007l-0.004,3.828l-8.75-0.007l-0.021,28.195
					c-0.002,2.347,0.42,4.094,1.266,5.241s2.258,1.722,4.236,1.724c0.781,0.001,2.045-0.128,3.791-0.388l0.191,3.795
					c-1.225,0.438-2.891,0.656-5,0.654c-3.203-0.002-5.533-0.935-6.99-2.798s-2.184-4.604-2.182-8.225l0.021-28.203l-7.773-0.006
					l0.004-3.828l7.773,0.006l0.008-10.82L268.893,374.075z"/>
				<path style="opacity:0.9;fill:#FFFFFF;" d="M303.656,427.969c-3.594-0.002-6.842-0.89-9.744-2.663s-5.16-4.242-6.771-7.408
					c-1.613-3.165-2.418-6.714-2.414-10.646l0.002-1.68c0.002-4.063,0.793-7.72,2.371-10.975c1.578-3.254,3.773-5.811,6.588-7.671
					c2.814-1.858,5.861-2.788,9.143-2.785c5.131,0.004,9.199,1.759,12.203,5.263c3.006,3.506,4.506,8.292,4.5,14.359l-0.002,2.617
					l-30.156-0.023v0.898c-0.004,4.792,1.367,8.784,4.111,11.976c2.744,3.192,6.201,4.79,10.367,4.794
					c2.5,0.002,4.709-0.452,6.623-1.362s3.654-2.366,5.219-4.371l2.928,2.229C315.182,425.492,310.191,427.975,303.656,427.969z
					 M302.828,388.125c-3.516-0.003-6.48,1.284-8.891,3.86s-3.879,6.039-4.402,10.387l25.352,0.02v-0.508
					c-0.127-4.063-1.283-7.37-3.469-9.924S306.369,388.128,302.828,388.125z"/>
				<path style="opacity:0.9;fill:#FFFFFF;" d="M348.178,388.941c-0.99-0.183-2.045-0.275-3.164-0.276
					c-2.916-0.002-5.385,0.811-7.402,2.437c-2.021,1.626-3.461,3.988-4.322,7.086l-0.023,29.023l-4.648-0.004l0.033-42.266
					l4.57,0.004l0.072,6.719c2.479-4.998,6.451-7.495,11.92-7.49c1.303,0.001,2.33,0.171,3.086,0.51L348.178,388.941z"/>
				<path style="opacity:0.9;fill:#FFFFFF;" d="M380.648,427.248c-0.467-1.328-0.766-3.295-0.895-5.899
					c-1.641,2.135-3.732,3.78-6.273,4.937c-2.539,1.156-5.229,1.734-8.066,1.732c-4.063-0.004-7.35-1.139-9.861-3.406
					s-3.766-5.133-3.762-8.597c0.002-4.114,1.717-7.368,5.143-9.762c3.426-2.393,8.199-3.587,14.32-3.583l8.477,0.007l0.004-4.805
					c0.002-3.021-0.928-5.397-2.787-7.131c-1.861-1.733-4.576-2.602-8.143-2.604c-3.256-0.002-5.953,0.83-8.088,2.494
					c-2.137,1.665-3.207,3.669-3.209,6.013l-4.688-0.042c0.004-3.359,1.568-6.269,4.695-8.728c3.127-2.458,6.969-3.686,11.525-3.682
					c4.713,0.003,8.43,1.185,11.15,3.544c2.719,2.359,4.117,5.647,4.191,9.866l-0.016,20c-0.004,4.089,0.424,7.148,1.281,9.181
					v0.469L380.648,427.248z M365.963,423.877c3.125,0.003,5.92-0.75,8.381-2.259c2.463-1.508,4.254-3.525,5.377-6.051l0.006-9.297
					l-8.359-0.007c-4.662,0.05-8.307,0.899-10.939,2.551c-2.631,1.652-3.947,3.923-3.949,6.813c-0.002,2.37,0.875,4.336,2.631,5.9
					C360.867,423.092,363.15,423.875,365.963,423.877z"/>
				<path style="opacity:0.9;fill:#FFFFFF;" d="M412.447,424.108c3.256,0.003,5.984-0.913,8.186-2.747
					c2.203-1.834,3.396-4.209,3.58-7.126l4.492,0.003c-0.133,2.578-0.941,4.929-2.428,7.049c-1.484,2.122-3.459,3.781-5.922,4.977
					c-2.461,1.195-5.098,1.793-7.91,1.79c-5.547-0.004-9.939-1.935-13.18-5.791c-3.238-3.856-4.855-9.04-4.852-15.551l0.002-1.406
					c0.004-4.166,0.734-7.852,2.195-11.053c1.461-3.202,3.553-5.675,6.275-7.417s5.906-2.613,9.553-2.61
					c4.635,0.004,8.457,1.388,11.463,4.149c3.006,2.764,4.609,6.397,4.814,10.902l-4.492-0.003
					c-0.205-3.307-1.395-5.978-3.568-8.011c-2.172-2.033-4.912-3.051-8.219-3.054c-4.219-0.003-7.496,1.518-9.828,4.563
					c-2.334,3.046-3.502,7.316-3.506,12.811l-0.002,1.367c-0.004,5.391,1.158,9.598,3.486,12.619
					C404.916,422.593,408.203,424.105,412.447,424.108z"/>
				<path style="opacity:0.9;fill:#FFFFFF;" d="M445.338,374.213l-0.008,10.82l8.75,0.007l-0.004,3.828l-8.75-0.007l-0.021,28.195
					c-0.002,2.347,0.42,4.094,1.266,5.241s2.258,1.722,4.236,1.724c0.781,0.001,2.045-0.128,3.791-0.388l0.191,3.795
					c-1.225,0.438-2.891,0.656-5,0.654c-3.203-0.002-5.533-0.935-6.99-2.798s-2.184-4.604-2.182-8.225l0.021-28.203l-7.773-0.006
					l0.004-3.828l7.773,0.006l0.008-10.82L445.338,374.213z"/>
				<path style="opacity:0.9;fill:#FFFFFF;" d="M463.504,372.84c0-0.88,0.287-1.624,0.861-2.231c0.572-0.607,1.354-0.911,2.344-0.91
					c0.99,0,1.777,0.306,2.363,0.914c0.584,0.608,0.877,1.353,0.877,2.232c-0.002,0.88-0.295,1.617-0.881,2.212
					c-0.586,0.596-1.375,0.892-2.363,0.892c-0.99-0.001-1.771-0.299-2.344-0.896C463.789,374.457,463.502,373.72,463.504,372.84z
					 M468.969,427.316l-4.688-0.003l0.033-42.266l4.688,0.003L468.969,427.316z"/>
				<path style="opacity:0.9;fill:#FFFFFF;" d="M494.834,420.892l12.879-35.811l4.805,0.004l-15.814,42.254l-3.789-0.003
					l-15.826-42.278l4.805,0.004L494.834,420.892z"/>
				<path style="opacity:0.9;fill:#FFFFFF;" d="M536,428.15c-3.594-0.003-6.842-0.89-9.744-2.664
					c-2.902-1.772-5.16-4.242-6.771-7.407c-1.613-3.165-2.418-6.714-2.414-10.646l0.002-1.68c0.002-4.063,0.793-7.721,2.371-10.975
					s3.773-5.811,6.588-7.671c2.814-1.859,5.861-2.788,9.143-2.786c5.131,0.004,9.199,1.76,12.203,5.264
					c3.006,3.505,4.506,8.292,4.5,14.359l-0.002,2.617l-30.156-0.023v0.898c-0.004,4.792,1.367,8.784,4.111,11.976
					c2.744,3.192,6.201,4.79,10.367,4.793c2.5,0.002,4.709-0.451,6.623-1.362c1.914-0.909,3.654-2.366,5.219-4.37l2.928,2.229
					C547.525,425.673,542.535,428.155,536,428.15z M535.172,388.306c-3.516-0.002-6.48,1.284-8.891,3.86s-3.879,6.039-4.402,10.388
					l25.352,0.02v-0.508c-0.127-4.063-1.283-7.37-3.469-9.925C541.576,389.587,538.713,388.309,535.172,388.306z"/>
			</g>
		</g>
		<g>
			<path style="fill:#184B80;" d="M580.472,13.5c8.838,0,16.028,7.19,16.028,16.028v406.445c0,8.838-7.19,16.028-16.028,16.028
				H29.528c-8.838,0-16.028-7.19-16.028-16.028V29.528c0-8.838,7.19-16.028,16.028-16.028H580.472 M580.472,0.5H29.528
				C13.496,0.5,0.5,13.496,0.5,29.528v406.445C0.5,452.004,13.496,465,29.528,465h550.945c16.031,0,29.028-12.996,29.028-29.028
				V29.528C609.5,13.496,596.504,0.5,580.472,0.5L580.472,0.5z"/>
		</g>
	</g>
</g>
</svg>
