<svg xmlns="http://www.w3.org/2000/svg" width="51" height="69" viewBox="0 0 51 69">
  <title>Recurso 3</title>
  <g id="Capa_2" data-name="Capa 2">
    <g id="Capa_1-2" data-name="Capa 1">
      <path d="M45,69H6a6,6,0,0,1-6-6V6A6,6,0,0,1,6,0H34.5a1.48,1.48,0,0,1,1.16.59L50.41,15.34A1.47,1.47,0,0,1,51,16.5h0v0h0V63A6,6,0,0,1,45,69ZM36,5.07V15h9.93ZM48,18H34.5A1.5,1.5,0,0,1,33,16.5V3H6A3,3,0,0,0,3,6V63a3,3,0,0,0,3,3H45a3,3,0,0,0,3-3ZM39,57H12a1.5,1.5,0,0,1,0-3H39a1.5,1.5,0,0,1,0,3Zm0-12H12a1.5,1.5,0,0,1,0-3H39a1.5,1.5,0,0,1,0,3Zm0-12H12a1.5,1.5,0,0,1,0-3H39a1.5,1.5,0,0,1,0,3Z" style="fill: #2f9cd7"/>
    </g>
  </g>
</svg>
